<svg width="955" height="243" viewBox="0 0 955 243" fill="none" xmlns="http://www.w3.org/2000/svg">
<path d="M15.947 3.04383C14.8883 2.77915 13.8737 2.64681 12.9032 2.64681C10.2564 2.64681 8.02864 3.59524 6.21999 5.49212C4.45546 7.34488 3.35262 9.94758 2.91149 13.3002C4.72014 12.2415 6.5729 11.7121 8.46978 11.7121C10.7637 11.7121 12.6826 12.462 14.2266 13.9619C15.7705 15.4618 16.5425 17.3586 16.5425 19.6525C16.5425 21.9464 15.7705 23.8433 14.2266 25.3432C12.7267 26.843 10.8519 27.5929 8.60212 27.5929C5.99942 27.5929 3.90404 26.5563 2.31595 24.4829C0.771985 22.4096 0 19.6746 0 16.2778C0 13.0135 0.529361 10.1681 1.58808 7.7419C2.69092 5.27155 4.21283 3.37468 6.15382 2.05128C8.09481 0.683758 10.3446 0 12.9032 0C13.8296 0 15.0206 0.154396 16.4764 0.463189L15.947 3.04383ZM35.1363 3.04383C34.0776 2.77915 33.063 2.64681 32.0925 2.64681C29.4457 2.64681 27.218 3.59524 25.4093 5.49212C23.6448 7.34488 22.542 9.94758 22.1008 13.3002C23.9095 12.2415 25.7622 11.7121 27.6591 11.7121C29.953 11.7121 31.8719 12.462 33.4159 13.9619C34.9599 15.4618 35.7319 17.3586 35.7319 19.6525C35.7319 21.9464 34.9599 23.8433 33.4159 25.3432C31.9161 26.843 30.0412 27.5929 27.7915 27.5929C25.1888 27.5929 23.0934 26.5563 21.5053 24.4829C19.9613 22.4096 19.1893 19.6746 19.1893 16.2778C19.1893 13.0135 19.7187 10.1681 20.7774 7.7419C21.8803 5.27155 23.4022 3.37468 25.3432 2.05128C27.2842 0.683758 29.5339 0 32.0925 0C33.0189 0 34.21 0.154396 35.6657 0.463189L35.1363 3.04383Z" fill="#061A47"/>
<path d="M919.864 239.602C920.922 239.867 921.937 240 922.908 240C925.554 240 927.76 239.073 929.525 237.22C931.333 235.323 932.458 232.699 932.899 229.346C931.091 230.405 929.238 230.934 927.341 230.934C925.047 230.934 923.128 230.184 921.584 228.684C920.04 227.185 919.268 225.288 919.268 222.994C919.268 220.7 920.018 218.803 921.518 217.303C923.062 215.803 924.959 215.053 927.209 215.053C929.811 215.053 931.885 216.09 933.429 218.163C935.017 220.237 935.811 222.972 935.811 226.368C935.811 229.633 935.259 232.5 934.156 234.971C933.098 237.397 931.598 239.294 929.657 240.661C927.716 241.985 925.466 242.646 922.908 242.646C921.981 242.646 920.79 242.492 919.334 242.183L919.864 239.602ZM939.053 239.602C940.112 239.867 941.126 240 942.097 240C944.744 240 946.949 239.073 948.714 237.22C950.523 235.323 951.647 232.699 952.089 229.346C950.28 230.405 948.427 230.934 946.53 230.934C944.236 230.934 942.317 230.184 940.773 228.684C939.229 227.185 938.458 225.288 938.458 222.994C938.458 220.7 939.207 218.803 940.707 217.303C942.251 215.803 944.148 215.053 946.398 215.053C949.001 215.053 951.074 216.09 952.618 218.163C954.206 220.237 955 222.972 955 226.368C955 229.633 954.449 232.5 953.346 234.971C952.287 237.397 950.787 239.294 948.846 240.661C946.905 241.985 944.655 242.646 942.097 242.646C941.17 242.646 939.979 242.492 938.524 242.183L939.053 239.602Z" fill="#0C1A44"/>
</svg>
