<svg width="23" height="23" viewBox="0 0 23 23" fill="none" xmlns="http://www.w3.org/2000/svg">
<path fill-rule="evenodd" clip-rule="evenodd" d="M11.5 0C8.37857 0 7.96786 0 6.81786 0.0821429C5.58571 0.0821429 4.76429 0.328571 4.025 0.575C3.28571 0.821429 2.54643 1.31429 1.97143 1.97143C1.39643 2.62857 0.821429 3.28571 0.575 4.025C0.328571 4.76429 0.0821429 5.58571 0.0821429 6.81786C0 7.96786 0 8.37857 0 11.5C0 14.6214 0 15.0321 0.0821429 16.1821C0.0821429 17.4143 0.328571 18.2357 0.575 18.975C0.821429 19.7143 1.31429 20.4536 1.88929 21.0286C2.54643 21.6857 3.28571 22.1786 4.025 22.425C4.76429 22.6714 5.58571 22.9179 6.81786 22.9179C7.29311 22.9179 7.63393 22.9301 8.05244 22.9451L8.05282 22.9451L8.05291 22.9451H8.05296H8.05299H8.05302C8.71947 22.969 9.58309 23 11.5 23C14.6214 23 15.0321 23 16.1821 22.9179C17.4143 22.9179 18.2357 22.6714 18.975 22.425C19.7143 22.1786 20.4536 21.6857 21.0286 21.1107C21.6036 20.5357 22.0964 19.7964 22.3429 19.0571C22.5893 18.3179 22.8357 17.4964 22.8357 16.2643C22.8357 15.7889 22.8602 15.4358 22.8902 15.002V15.002V15.002C22.938 14.3116 23 13.417 23 11.5C23 8.37857 23 7.96786 22.9179 6.81786C22.9179 5.58571 22.6714 4.76429 22.425 4.025C22.1786 3.28571 21.6857 2.54643 21.0286 1.97143C20.4536 1.31429 19.7143 0.821429 18.975 0.575C18.2357 0.328571 17.4143 0.0821429 16.1821 0.0821429C15.0321 0 14.6214 0 11.5 0ZM11.4999 2.05356C14.5392 2.05356 14.8678 2.05356 16.0999 2.1357C16.8814 2.1357 17.4429 2.26769 17.8811 2.37067C18.0416 2.40841 18.1856 2.44225 18.3178 2.46428C18.8106 2.7107 19.3035 2.95713 19.632 3.2857C19.9606 3.61428 20.207 4.10713 20.4535 4.59999C20.4656 4.64856 20.4813 4.70431 20.4993 4.76804L20.4996 4.7688L20.4997 4.7693L20.4997 4.76938C20.6035 5.13695 20.782 5.76912 20.782 6.81785C20.782 7.2931 20.7943 7.63392 20.8093 8.05243L20.8093 8.05281L20.8093 8.0529V8.05295V8.05299V8.05302C20.8332 8.71946 20.8642 9.58309 20.8642 11.5V11.5002C20.8642 14.5393 20.8642 14.8679 20.782 16.1C20.782 16.8815 20.6501 17.443 20.5471 17.8812L20.5471 17.8812C20.5093 18.0417 20.4755 18.1857 20.4535 18.3178C20.207 18.8107 19.9606 19.3036 19.632 19.6321C19.3035 19.9607 18.8928 20.2071 18.3178 20.4536C18.2688 20.4658 18.2127 20.4817 18.1484 20.4998L18.1484 20.4998C17.7808 20.6036 17.1486 20.7821 16.0999 20.7821C15.6207 20.7821 15.2782 20.7946 14.8598 20.8097L14.8594 20.8097L14.8594 20.8098H14.8593H14.8593H14.8593C14.2018 20.8336 13.3568 20.8643 11.4999 20.8643C8.46061 20.8643 8.13204 20.8643 6.8999 20.7821C6.11842 20.7821 5.55691 20.6502 5.11877 20.5472L5.11875 20.5472L5.11873 20.5472L5.11869 20.5472C4.95816 20.5094 4.8142 20.4756 4.68204 20.4536C4.18919 20.2071 3.69633 19.9607 3.36776 19.6321C3.03919 19.3036 2.79276 18.8107 2.54633 18.3178C2.5341 18.2689 2.51824 18.2128 2.50008 18.1485L2.50008 18.1485C2.39628 17.7809 2.21776 17.1487 2.21776 16.1C2.21776 15.6207 2.20533 15.2781 2.19014 14.8595C2.16628 14.202 2.13561 13.3569 2.13561 11.5C2.13561 8.4607 2.13561 8.13213 2.21776 6.81785C2.21776 6.03635 2.34974 5.47483 2.45272 5.03668C2.49046 4.87614 2.5243 4.73216 2.54633 4.59999C2.79276 4.10713 3.03919 3.61428 3.36776 3.2857C3.69633 2.95713 4.10704 2.7107 4.68204 2.46428C4.73095 2.45205 4.78715 2.43618 4.85143 2.41803C5.219 2.31423 5.85118 2.1357 6.8999 2.1357C8.13204 2.05356 8.46061 2.05356 11.4999 2.05356ZM7.63867 11.5004C7.63867 13.6361 9.44581 15.3611 11.4994 15.3611C13.553 15.3611 15.3601 13.6361 15.3601 11.5004C15.3601 9.36465 13.6351 7.63965 11.4994 7.63965C9.36367 7.63965 7.63867 9.36465 7.63867 11.5004ZM11.5 5.58572C8.21433 5.58572 5.58575 8.21429 5.58575 11.5C5.58575 14.7857 8.21433 17.4143 11.5 17.4143C14.7858 17.4143 17.4143 14.7857 17.4143 11.5C17.4143 8.21429 14.7858 5.58572 11.5 5.58572ZM17.661 6.65396C18.4003 6.65396 18.9753 6.07896 18.9753 5.33968C18.9753 4.60039 18.4003 4.02539 17.661 4.02539C16.9217 4.02539 16.3467 4.60039 16.3467 5.33968C16.3467 6.07896 16.9217 6.65396 17.661 6.65396Z" fill="#FAF9F6"/>
</svg>
