<svg width="177" height="48" viewBox="0 0 177 48" fill="none" xmlns="http://www.w3.org/2000/svg">
<path d="M21.6778 10.3612C16.7779 10.3612 13.0661 12.4399 10.8389 16.0031V11.3261H0V47.9998H10.8389V28.5493C10.8389 23.4274 13.5857 20.3088 17.7428 20.3088C21.9745 20.3088 24.3503 23.0556 24.3503 27.8812V47.9998H35.1889V25.3572C35.1889 16.0774 30.0669 10.3612 21.6778 10.3612Z" fill="#FAF9F6"/>
<path d="M58.307 9.76357C47.7484 9.76357 39.1891 18.3229 39.1891 28.8815C39.1891 39.4402 47.7484 47.9995 58.307 47.9995C68.8656 47.9995 77.425 39.4402 77.425 28.8815C77.425 18.3229 68.8656 9.76357 58.307 9.76357ZM58.307 38.4415C53.1678 38.4415 49.0018 34.1617 49.0018 28.8819C49.0018 23.602 53.1678 19.3222 58.307 19.3222C63.4462 19.3222 67.6122 23.602 67.6122 28.8819C67.6122 34.1617 63.4462 38.4415 58.307 38.4415Z" fill="#FAF9F6"/>
<path d="M100.845 9.7629C97.4663 9.7629 94.085 11.0342 91.54 12.9506V0H81.425V47.2389H91.54V44.8118C94.1359 47.0346 97.4663 47.9995 100.845 47.9995C111.933 47.9995 119.963 39.4402 119.963 28.8815C119.963 18.3229 112.085 9.76359 100.845 9.76359V9.7629ZM100.845 38.4409C95.706 38.4409 91.54 34.161 91.54 28.8812C91.54 23.6014 95.706 19.3215 100.845 19.3215C105.984 19.3215 110.151 23.6014 110.151 28.8812C110.151 34.161 105.985 38.4409 100.845 38.4409Z" fill="#FAF9F6"/>
<path d="M134.078 0.760734H123.963V47.9996H134.078V0.760734Z" fill="#FAF9F6"/>
<path d="M176.314 28.8815C176.314 18.3229 167.754 9.76357 157.196 9.76357C146.637 9.76357 138.078 18.3229 138.078 28.8815C138.078 39.4401 146.637 47.9995 157.196 47.9995C163.994 47.9995 170.799 44.6966 174.046 38.8559L165.688 34.2215C163.823 36.8996 161.058 38.4408 157.965 38.4408C153.991 38.4408 149.831 35.8804 148.497 32.2786H176.007C176.205 31.1755 176.314 30.0414 176.314 28.8815ZM148.921 24.5095C150.466 21.4295 153.59 19.3219 157.195 19.3219C160.8 19.3219 163.925 21.4295 165.47 24.5095H148.921Z" fill="#FAF9F6"/>
</svg>
