<svg width="19" height="15" viewBox="0 0 19 15" fill="none" xmlns="http://www.w3.org/2000/svg">
<path d="M0.316666 13.0537C0.879629 13.1944 1.41913 13.2648 1.93518 13.2648C3.34259 13.2648 4.51543 12.7722 5.4537 11.787C6.41543 10.7784 7.01357 9.38271 7.24814 7.59999C6.28641 8.16296 5.30123 8.44444 4.29259 8.44444C3.07284 8.44444 2.05247 8.04567 1.23148 7.24814C0.410494 6.45061 0 5.44197 0 4.22222C0 3.00247 0.398765 1.99383 1.1963 1.19629C2.01728 0.398765 3.02592 0 4.22222 0C5.60617 0 6.70864 0.551234 7.52962 1.6537C8.37407 2.75617 8.79629 4.21049 8.79629 6.01666C8.79629 7.75246 8.50308 9.27715 7.91666 10.5907C7.3537 11.8809 6.55617 12.8895 5.52407 13.6167C4.49197 14.3204 3.29568 14.6722 1.93518 14.6722C1.44259 14.6722 0.809258 14.5901 0.0351852 14.4259L0.316666 13.0537ZM10.5204 13.0537C11.0833 13.1944 11.6228 13.2648 12.1389 13.2648C13.5463 13.2648 14.7191 12.7722 15.6574 11.787C16.6191 10.7784 17.2173 9.38271 17.4518 7.59999C16.4901 8.16296 15.5049 8.44444 14.4963 8.44444C13.2765 8.44444 12.2562 8.04567 11.4352 7.24814C10.6142 6.45061 10.2037 5.44197 10.2037 4.22222C10.2037 3.00247 10.6025 1.99383 11.4 1.19629C12.221 0.398765 13.2296 0 14.4259 0C15.8099 0 16.9123 0.551234 17.7333 1.6537C18.5778 2.75617 19 4.21049 19 6.01666C19 7.75246 18.7068 9.27715 18.1204 10.5907C17.5574 11.8809 16.7599 12.8895 15.7278 13.6167C14.6957 14.3204 13.4994 14.6722 12.1389 14.6722C11.6463 14.6722 11.013 14.5901 10.2389 14.4259L10.5204 13.0537Z" fill="#94C0E3"/>
</svg>
