<svg width="25" height="19" viewBox="0 0 25 19" fill="none" xmlns="http://www.w3.org/2000/svg">
<path d="M12.8435 0C14.3669 0 20.5618 0.0684683 22.2648 0.564865C22.7931 0.718824 23.2753 1.02195 23.6632 1.44396C24.0512 1.86597 24.3313 2.39211 24.4756 2.96982C24.84 5.11459 25.0153 7.29279 24.999 9.47432V9.53423C25.015 11.7158 24.8397 13.8939 24.4756 16.0387C24.3301 16.6149 24.0495 17.1392 23.6616 17.5597C23.2737 17.9801 22.7922 18.2819 22.2648 18.4351C20.5305 18.9401 14.1091 19 12.7498 19H12.2498C10.8905 19 4.47692 18.9401 2.73485 18.4351C2.20745 18.2819 1.72587 17.9801 1.338 17.5597C0.95014 17.1392 0.669519 16.6149 0.524059 16.0387C0.163439 13.9453 -0.0118414 11.8186 0.00065739 9.68829V9.32027C-0.0121828 7.18992 0.163101 5.0632 0.524059 2.96982C0.668332 2.39211 0.948424 1.86597 1.33637 1.44396C1.72431 1.02195 2.20652 0.718824 2.73485 0.564865C4.43786 0.0684683 10.6406 0 12.1639 0H12.8435ZM10.2031 5.58874V13.4113L16.3277 9.5L10.2031 5.58874Z" fill="#FAF9F6"/>
</svg>
