<svg width="20" height="20" viewBox="0 0 20 20" fill="none" xmlns="http://www.w3.org/2000/svg">
<path d="M13.64 7.3528C13.8086 7.523 13.9031 7.75276 13.9031 7.99218C13.9031 8.2316 13.8086 8.46135 13.64 8.63155L9.64003 12.6276C9.46966 12.796 9.23968 12.8905 9.00003 12.8905C8.76037 12.8905 8.53039 12.796 8.36003 12.6276L6.36002 10.6296C6.21826 10.455 6.14628 10.2342 6.15795 10.0097C6.16963 9.78519 6.26415 9.57298 6.42326 9.41403C6.58237 9.25507 6.79479 9.16065 7.0195 9.14898C7.24421 9.13731 7.46528 9.20923 7.64002 9.35085L9.00003 10.7195L12.36 7.3528C12.5304 7.18442 12.7604 7.08998 13 7.08998C13.2397 7.08998 13.4697 7.18442 13.64 7.3528ZM20.0001 9.99022C20.0001 11.9661 19.4136 13.8976 18.3147 15.5405C17.2159 17.1834 15.6541 18.4638 13.8269 19.22C11.9996 19.9761 9.98894 20.174 8.04912 19.7885C6.10931 19.403 4.32747 18.4515 2.92894 17.0544C1.53042 15.6572 0.578005 13.8771 0.192152 11.9392C-0.193701 10.0013 0.00433285 7.9926 0.761211 6.16713C1.51809 4.34165 2.79982 2.7814 4.44431 1.68366C6.08881 0.585916 8.02221 0 10 0C11.3133 0 12.6136 0.258405 13.8269 0.76046C15.0401 1.26252 16.1425 1.99839 17.0711 2.92607C17.9997 3.85375 18.7363 4.95506 19.2388 6.16713C19.7414 7.3792 20.0001 8.67829 20.0001 9.99022ZM18 9.99022C18 8.40952 17.5309 6.86431 16.6518 5.55001C15.7727 4.2357 14.5233 3.21132 13.0615 2.60641C11.5997 2.0015 9.99116 1.84323 8.4393 2.15161C6.88745 2.45999 5.46198 3.22117 4.34316 4.3389C3.22434 5.45662 2.46241 6.88069 2.15373 8.43102C1.84505 9.98135 2.00347 11.5883 2.60897 13.0487C3.21448 14.5091 4.23986 15.7573 5.55546 16.6355C6.87105 17.5137 8.41778 17.9824 10 17.9824C12.1218 17.9824 14.1566 17.1404 15.6569 15.6415C17.1572 14.1427 18 12.1099 18 9.99022Z" fill="#0C1A44"/>
</svg>
