<svg width="89" height="24" viewBox="0 0 89 24" fill="none" xmlns="http://www.w3.org/2000/svg">
<path d="M10.839 5.18054C8.38904 5.18054 6.53313 6.21991 5.41949 8.00153V5.663H0V24H5.41949V14.2747C5.41949 11.7137 6.79294 10.1544 8.8715 10.1544C10.9874 10.1544 12.1753 11.5278 12.1753 13.9406V24H17.5946V12.6786C17.5946 8.03867 15.0336 5.18054 10.839 5.18054Z" fill="#0C1A44"/>
<path d="M29.1538 4.88184C23.8744 4.88184 19.5947 9.16155 19.5947 14.4409C19.5947 19.7203 23.8744 24 29.1538 24C34.4332 24 38.7129 19.7203 38.7129 14.4409C38.7129 9.16155 34.4332 4.88184 29.1538 4.88184ZM29.1538 19.221C26.5842 19.221 24.5012 17.081 24.5012 14.4411C24.5012 11.8011 26.5842 9.6612 29.1538 9.6612C31.7234 9.6612 33.8065 11.8011 33.8065 14.4411C33.8065 17.081 31.7234 19.221 29.1538 19.221Z" fill="#0C1A44"/>
<path d="M50.4229 4.8815C48.7334 4.8815 47.0427 5.51716 45.7702 6.47537V0H40.7126V23.6197H45.7702V22.4061C47.0682 23.5175 48.7334 24 50.4229 24C55.9668 24 59.9819 19.7203 59.9819 14.4409C59.9819 9.16156 56.043 4.88184 50.4229 4.88184V4.8815ZM50.4229 19.2206C47.8532 19.2206 45.7702 17.0807 45.7702 14.4407C45.7702 11.8008 47.8532 9.66087 50.4229 9.66087C52.9925 9.66087 55.0757 11.8008 55.0757 14.4407C55.0757 17.0807 52.9926 19.2206 50.4229 19.2206Z" fill="#0C1A44"/>
<path d="M67.04 0.380371H61.9824V24H67.04V0.380371Z" fill="#0C1A44"/>
<path d="M88.1582 14.4409C88.1582 9.16155 83.8785 4.88184 78.5991 4.88184C73.3198 4.88184 69.04 9.16155 69.04 14.4409C69.04 19.7203 73.3198 24 78.5991 24C81.9983 24 85.4006 22.3485 87.0244 19.4281L82.8453 17.1109C81.9131 18.45 80.5305 19.2206 78.9837 19.2206C76.9967 19.2206 74.9167 17.9404 74.2498 16.1395H88.0047C88.1037 15.5879 88.1582 15.0209 88.1582 14.4409ZM74.4618 12.2549C75.2343 10.7148 76.7963 9.66103 78.5989 9.66103C80.4015 9.66103 81.9636 10.7148 82.7361 12.2549H74.4618Z" fill="#0C1A44"/>
</svg>
