<svg width="19" height="15" viewBox="0 0 19 15" fill="none" xmlns="http://www.w3.org/2000/svg">
<path d="M8.47968 1.61853C7.91671 1.47779 7.3772 1.40742 6.86115 1.40742C5.45373 1.40742 4.26916 1.91174 3.30743 2.92039C2.36915 3.90558 1.78273 5.28954 1.54816 7.07226C2.50989 6.5093 3.49508 6.22781 4.50373 6.22781C5.72349 6.22781 6.74386 6.62658 7.56486 7.42412C8.38585 8.22165 8.79635 9.2303 8.79635 10.4501C8.79635 11.6698 8.38585 12.6785 7.56486 13.476C6.76732 14.2735 5.7704 14.6723 4.5741 14.6723C3.19014 14.6723 2.07594 14.1211 1.23149 13.0186C0.410496 11.9161 0 10.4618 0 8.6556C0 6.91979 0.281483 5.40682 0.844449 4.11669C1.43087 2.8031 2.24014 1.79445 3.27224 1.09075C4.30435 0.363583 5.50065 0 6.86115 0C7.35374 0 7.98708 0.0820989 8.76116 0.246297L8.47968 1.61853ZM18.6834 1.61853C18.1205 1.47779 17.581 1.40742 17.0649 1.40742C15.6575 1.40742 14.4729 1.91174 13.5112 2.92039C12.5729 3.90558 11.9865 5.28954 11.7519 7.07226C12.7137 6.5093 13.6988 6.22781 14.7075 6.22781C15.9272 6.22781 16.9476 6.62658 17.7686 7.42412C18.5896 8.22165 19.0001 9.2303 19.0001 10.4501C19.0001 11.6698 18.5896 12.6785 17.7686 13.476C16.9711 14.2735 15.9742 14.6723 14.7779 14.6723C13.3939 14.6723 12.2797 14.1211 11.4352 13.0186C10.6143 11.9161 10.2038 10.4618 10.2038 8.6556C10.2038 6.91979 10.4852 5.40682 11.0482 4.11669C11.6346 2.8031 12.4439 1.79445 13.476 1.09075C14.5081 0.363583 15.7044 0 17.0649 0C17.5575 0 18.1908 0.0820989 18.9649 0.246297L18.6834 1.61853Z" fill="#94C0E3"/>
</svg>
