<svg width="683" height="999" viewBox="0 0 683 999" fill="none" xmlns="http://www.w3.org/2000/svg">
<path d="M58.2598 137.995C56.5254 132.467 52.84 130.082 47.2035 130.624C41.1334 131.166 33.5457 139.079 33.1122 145.149C33.1122 146.124 33.1122 146.991 33.4374 147.967C35.0633 154.254 37.5564 160.216 41.2418 165.635C43.0845 168.237 45.3608 170.73 47.9623 172.681C53.0568 176.475 57.7178 174.957 59.5605 168.887C60.6444 165.419 60.8612 161.842 61.1864 159.782C60.7528 151.327 60.2109 144.607 58.2598 138.103V137.995Z" fill="#FAF9F6"/>
<path d="M91.2105 104.608C91.6441 96.9122 91.6441 87.6986 89.4762 80.111C88.8259 77.8347 86.116 77.1843 84.5985 75.3416C81.455 71.6562 74.5177 71.7646 71.4827 75.3416C69.9652 77.1843 67.0385 79.3522 66.1713 81.5201C63.7866 87.0483 64.2202 93.01 64.0034 98.9717C63.6783 108.944 62.9195 118.916 62.8111 128.889C62.8111 129.973 63.5699 131.057 63.895 132.032C67.0385 141.029 70.6155 150.351 70.6155 159.89C70.6155 164.659 69.8568 169.32 67.6889 173.656C63.1363 183.086 53.0556 186.121 44.1672 180.701C40.1566 178.317 37.0131 174.956 34.3033 171.163C33.6529 170.187 31.0514 167.586 30.0759 166.285C28.9919 167.911 27.7996 168.995 27.1492 170.404C23.5722 177.124 22.163 186.121 23.5722 193.492C25.5233 203.248 30.6178 213.437 38.5307 219.615C42.3245 222.65 48.1778 226.552 53.5975 224.384C55.657 223.517 58.1501 222.867 60.318 222.65C62.5943 222.542 64.8706 222.759 67.1469 222.975C69.64 223.084 68.014 221.675 68.2308 223.951C68.4476 226.336 68.6644 226.769 66.0629 227.311C64.7622 227.528 63.1363 227.311 61.8355 227.42C58.4753 227.853 55.4403 228.395 52.1884 229.262C47.961 230.238 43.4084 231.647 40.5902 235.116C37.4467 239.018 36.5796 245.521 38.3139 250.182C38.9642 252.242 42.5413 256.469 44.926 257.553C46.5519 250.291 51.6464 247.798 58.0417 247.039C68.4476 245.955 76.6856 245.63 86.8747 248.015C91.1021 248.99 93.812 251.808 94.6792 256.361C94.7876 257.12 97.0639 258.529 97.2806 259.613C101.4 258.095 105.627 252.134 107.361 248.773C108.987 245.63 107.795 241.186 105.41 238.801C103.568 236.958 99.7737 236.85 97.389 235.658C94.2456 234.032 90.6686 233.056 87.3083 231.647C84.3817 230.455 85.7908 228.07 86.5496 225.577C87.4167 223.084 87.3083 223.951 90.5602 224.926C91.5357 225.252 92.6197 226.444 93.5952 226.878C96.4135 227.853 99.1234 228.937 101.833 230.021C104.868 228.395 110.071 226.227 112.998 224.493C123.837 218.206 133.051 207.367 138.796 196.093C141.939 189.915 141.939 181.785 140.422 174.848C139.555 170.837 135.761 169.537 131.967 167.911C130.883 167.477 129.799 166.935 128.607 166.502C123.187 164.551 118.851 161.299 115.274 156.963C112.998 154.253 110.722 151.652 108.229 149.158C105.302 146.34 102.05 144.389 98.0394 143.63C93.4868 142.763 88.7175 142.98 87.7419 147.641C87.0915 150.784 86.658 153.819 87.3083 156.855C89.9098 168.019 99.015 182.869 110.288 184.495C111.48 184.712 111.372 186.121 112.564 186.446C114.841 187.097 118.851 183.845 118.743 185.904C118.743 187.964 119.393 189.807 117.225 190.132C115.166 190.349 112.998 190.349 110.83 190.023C106.277 189.265 101.942 187.53 98.2562 184.82C95.1127 182.544 92.0777 182.761 88.7175 183.628C82.7557 185.254 77.878 188.506 73.9758 193.167C71.9163 195.66 70.5071 198.587 68.7728 201.296C67.3637 203.464 65.4126 204.44 63.3531 203.681C61.0768 202.922 59.776 200.754 60.2096 198.261C60.5348 196.852 61.1852 195.335 61.8355 194.142C66.6049 185.688 73.3254 179.509 82.2138 175.824C83.5145 175.282 84.8152 174.848 86.0076 174.306C84.1649 170.621 82.1054 167.26 80.8046 163.792C76.6856 153.169 79.1787 143.197 86.9831 136.368C87.6335 125.42 90.3434 115.231 91.1021 104.608H91.2105Z" fill="#FAF9F6"/>
<path d="M528.043 85.8606C527.284 93.1231 526.417 100.386 525.658 107.54C524.791 115.127 523.816 122.823 523.057 130.411C522.19 137.999 521.214 145.695 520.347 153.282C519.697 159.244 518.829 165.314 518.179 171.384C516.987 181.682 515.686 191.979 514.494 202.277C513.518 209.864 512.651 217.56 511.784 225.148C510.808 233.169 509.724 241.19 508.857 249.212C507.882 257.233 507.014 265.362 506.039 273.384C504.847 283.464 503.546 293.437 502.353 303.517C501.378 311.322 500.511 319.126 499.535 326.822C498.56 334.735 497.584 342.648 496.609 350.452C495.633 358.474 494.766 366.495 493.79 374.624C492.815 382.429 491.948 390.233 490.972 397.929C489.996 405.842 489.129 413.755 488.045 421.559C486.853 431.748 485.444 441.829 484.36 452.018C483.384 459.931 482.517 467.844 481.65 475.757C480.674 483.778 479.699 491.799 478.723 499.929C477.748 507.733 476.881 515.538 476.014 523.234C475.038 531.146 474.062 539.059 473.087 546.864C472.111 554.777 471.244 562.689 470.269 570.602C469.293 578.407 468.426 586.211 467.559 593.907C466.908 599.327 466.258 604.53 465.499 609.95C464.849 614.611 462.464 618.513 459.321 621.981C454.443 627.401 448.373 630.978 441.761 634.122C437.1 636.398 432.222 636.073 427.453 635.422C412.169 633.471 396.994 631.195 381.818 629.027C367.619 626.968 353.527 624.8 339.436 622.849C325.02 620.789 310.603 618.946 296.186 616.887C281.987 614.827 267.895 612.768 253.804 610.708C241.23 608.866 228.765 607.24 216.191 605.614C213.59 605.18 210.88 604.747 208.17 604.421C204.376 603.879 200.474 603.771 196.572 603.554C190.718 603.446 184.865 602.037 179.012 600.736C174.676 599.76 171.749 596.183 168.823 593.04C162.536 586.211 161.669 577.865 162.427 569.193C163.078 562.473 163.728 555.861 164.595 549.14C165.788 538.843 167.197 528.545 168.389 518.248C169.365 510.877 170.232 503.506 170.991 496.135C171.966 488.873 172.833 481.393 173.809 474.131C174.784 466.326 175.651 458.63 176.627 450.826C177.603 442.805 178.687 434.784 179.662 426.762C180.854 417.224 182.047 407.793 183.131 398.254C183.998 390.992 184.973 383.73 185.841 376.575C186.816 368.663 187.792 360.75 188.767 352.945C189.743 344.816 190.827 336.578 191.802 328.557C192.995 318.909 194.187 309.262 195.271 299.724C196.138 292.678 197.114 285.524 197.981 278.478C198.956 270.674 199.932 262.978 200.907 255.173C202.1 245.093 203.509 235.12 204.593 225.04C205.568 217.235 206.436 209.431 207.411 201.735C208.603 191.979 209.904 182.224 211.097 172.468C212.072 164.989 212.939 157.401 213.915 150.03C214.89 142.551 215.758 135.072 216.733 127.593C217.709 119.68 218.684 111.767 219.66 103.963C220.635 96.4833 221.502 88.8957 222.37 81.5249C223.562 71.119 224.754 60.7131 226.163 50.1988C227.139 43.1531 226.705 34.0479 231.8 28.9534C239.279 21.3657 250.769 17.3551 261.283 18.8727C270.497 20.1734 282.095 22.5581 291.2 23.8588C302.257 25.3763 311.037 25.2679 322.093 26.8939C330.873 28.0862 341.387 31.4465 350.276 32.6388C361.44 34.1563 370.979 33.506 382.144 34.9151C393.633 36.4326 405.123 38.2753 416.613 39.7929C424.743 40.8768 432.872 41.202 441.002 42.2859C450.216 43.4783 459.429 46.2965 468.643 47.5973C481.325 49.44 496.283 51.7163 508.749 53.9926C517.204 55.6185 524.574 63.4229 527.935 71.3357C529.994 75.8883 528.043 80.8745 527.826 86.0774L528.043 85.8606ZM181.071 566.05C181.071 566.05 182.264 569.301 182.372 570.927C182.806 580.466 187.033 583.61 196.463 584.694C206.869 585.994 214.348 586.428 224.754 587.945C232.342 589.029 239.93 590.764 247.517 591.739C258.357 593.257 269.196 594.232 279.927 595.75C293.91 597.809 307.893 600.194 321.876 602.254C331.957 603.771 342.146 605.289 352.335 606.806C362.307 608.324 375.748 610.058 385.721 611.575C396.777 613.201 404.365 614.502 415.421 616.453C421.166 617.429 426.585 616.453 432.114 614.719C438.834 612.551 440.785 610.166 442.303 603.446C443.387 598.568 442.086 595.641 442.628 590.764C443.603 582.959 445.88 572.553 446.855 564.857C448.048 554.777 448.698 547.406 449.999 537.325C450.974 529.521 450.866 521.825 451.733 514.02C452.709 505.999 455.31 497.869 456.286 489.848C457.261 481.935 457.586 474.022 458.562 466.218C459.429 458.956 459.971 451.693 460.838 444.539C461.814 436.626 461.814 428.713 462.898 420.909C463.873 412.888 465.282 404.867 466.15 396.845C467.125 388.933 469.185 381.02 470.16 373.215C471.353 363.677 471.569 354.246 472.653 344.707C473.629 336.903 474.496 329.099 475.472 321.403C476.447 313.056 478.507 301.891 479.482 293.653C480.458 285.849 480.891 281.08 481.758 273.275C482.734 265.688 484.577 255.499 485.444 247.911C486.419 240.106 485.444 234.903 486.311 227.207C487.287 219.186 489.346 211.165 490.322 203.144C491.297 195.231 492.815 184.608 493.682 176.695C494.874 167.157 496.825 158.485 497.909 148.946C499.102 139.082 498.668 131.17 499.752 121.197C500.944 111.333 502.895 101.469 503.979 91.4972C504.305 88.6789 503.546 85.7522 503.004 83.0424C500.944 74.8044 498.343 74.696 490.647 72.9617C486.853 72.0945 482.951 71.119 479.049 70.6854C470.269 69.493 461.38 69.0594 452.6 67.8671C441.761 66.3496 430.921 64.5069 420.19 63.0977C409.567 61.5802 398.836 60.2795 388.105 58.8703C373.364 56.8108 358.73 55.0765 344.097 53.1254C329.139 51.0659 314.18 48.898 299.222 46.8385C285.564 44.9958 273.966 41.3104 260.416 39.3593C254.996 38.6005 249.794 40.5516 246.65 47.5973C245.458 50.0904 244.916 53.017 244.591 55.7269C243.615 61.6886 244.049 64.9404 243.29 71.0106C242.423 77.8394 241.014 87.9201 240.146 94.749C239.171 102.662 239.171 111.55 238.195 119.355C237.22 126.834 235.377 133.446 234.51 140.925C233.534 148.404 232.125 155.342 231.041 162.713C229.849 172.36 230.824 184.175 229.632 193.822C228.44 203.577 225.188 211.382 223.996 221.137C223.02 228.183 224.754 237.83 223.887 244.984C222.695 254.631 220.202 262.978 219.009 272.516C217.817 282.272 214.999 290.51 213.698 300.266C212.723 308.287 213.048 317.609 211.964 325.63C211.097 332.35 209.579 338.312 208.712 345.033C207.736 352.837 206.436 360.099 205.46 367.904C203.943 379.502 202.1 390.884 200.582 402.482C199.39 412.129 198.956 422.535 197.656 432.074C196.138 443.564 195.054 455.379 193.537 466.977C192.344 476.732 190.502 485.837 189.309 495.701C188.117 505.782 187.792 516.838 186.491 526.811C185.515 534.724 184.54 538.409 183.673 546.322C183.131 552.825 181.83 559.438 181.18 565.941L181.071 566.05Z" fill="#194790"/>
<path d="M533.678 65.048C538.772 67.4327 545.818 72.5272 548.636 77.0798C553.622 84.9926 556.007 93.7726 556.441 103.095C556.874 112.958 555.357 122.714 554.056 132.47C552.864 140.166 552.213 150.246 551.238 157.942C550.045 167.698 548.203 176.911 546.902 186.667C545.926 193.929 546.035 199.674 545.168 207.045C544.192 214.633 543 224.605 542.133 232.301C541.157 240.106 540.615 248.127 539.531 255.931C538.339 266.012 536.604 275.659 535.304 285.631C534.328 293.002 533.353 300.156 532.377 307.527C531.185 317.391 529.884 327.255 528.692 337.227C528.041 342.105 527.608 344.707 526.957 349.801C516.877 351.319 507.771 356.955 503.436 366.169C503.869 362.483 500.292 358.798 500.834 355.112C502.352 341.997 504.953 328.881 506.579 315.765C507.771 305.684 510.048 293.978 511.24 283.897C512.216 275.551 511.782 269.047 512.758 260.809C513.842 251.812 515.684 240.648 516.768 231.651C517.744 223.304 518.828 217.343 519.803 209.105C520.779 200.542 521.863 191.978 522.947 183.415C523.922 175.502 523.597 167.589 524.464 159.785C525.331 152.848 527.825 144.068 528.583 137.131C529.559 129.001 530.426 120.763 531.51 112.525C532.16 107.214 532.594 101.902 533.027 96.5909C533.461 91.2795 534.111 86.4018 534.22 81.3072C534.328 77.2966 534.22 73.1776 533.027 69.2754C532.702 68.0831 530.426 63.5305 533.569 65.048H533.678Z" fill="#194790"/>
<path d="M515.685 394.673C510.807 393.372 511.783 386.001 510.59 380.473C509.723 375.921 503.761 376.679 502.786 372.127C502.244 376.137 501.594 380.256 501.16 384.375C500.184 392.288 499.317 400.201 498.45 408.114C497.475 416.135 496.391 424.156 495.524 432.178C494.548 439.765 493.681 447.461 492.814 455.049C491.838 463.178 490.754 471.416 489.887 479.546C489.02 487.242 488.153 495.047 487.285 502.851C485.768 515.1 484.142 527.457 482.733 539.705C481.432 549.786 480.348 559.758 479.264 569.839C477.855 582.413 473.953 596.396 473.845 609.078C473.845 609.62 472.435 611.571 472.219 612.113C469.617 623.711 464.089 627.722 453.792 634.334C453.141 634.659 452.491 641.488 451.298 642.572C459.97 642.03 473.628 640.621 480.457 636.502C487.827 632.274 493.572 623.278 495.198 614.606C496.174 609.511 496.065 604.2 496.716 598.997C497.583 591.41 498.559 583.713 499.534 576.126C501.052 564.419 502.352 552.604 503.761 540.898C504.954 531.142 506.038 521.278 507.23 511.523C508.422 502.201 509.723 492.879 510.916 483.557C512.433 471.416 512.975 461.011 514.493 448.87C516.227 434.996 519.479 419.279 521.213 405.296C521.647 402.261 518.612 399.117 518.937 395.757C517.419 395.432 516.552 395.323 515.793 394.998L515.685 394.673Z" fill="#194790"/>
<path d="M533.354 350.343C565.981 362.375 593.621 381.669 619.528 403.89C642.724 423.726 656.49 448.982 662.127 478.791C664.837 493.316 663.319 507.624 658.333 521.39C657.791 522.799 657.358 524.1 656.816 525.509C671.232 539.383 669.823 557.377 653.347 571.902C654.323 576.563 655.515 581.224 656.274 586.102C659.309 605.288 649.987 623.931 632.752 632.82C625.381 636.722 617.468 638.348 609.23 636.288C606.087 635.53 602.835 634.121 600.017 632.278C598.066 630.977 596.548 630.435 594.272 630.977C584.625 633.145 576.17 630.652 569.775 623.173C567.39 620.354 565.872 616.886 563.596 613.092C553.624 612.984 544.952 608.648 540.183 598.675C535.305 588.812 536.931 579.273 543.218 570.168C543.001 569.517 542.784 568.867 542.351 568.108C533.788 550.765 538.665 532.121 554.708 521.498C564.463 514.995 575.411 512.502 587.118 514.236C590.044 514.67 592.754 515.753 596.006 516.621C601.968 511.743 608.797 508.708 617.252 511.309C618.661 507.19 618.878 503.071 619.094 498.952C619.853 473.371 610.748 451.584 592.971 433.482C575.845 416.03 555.25 404.432 531.62 398.253C530.644 398.037 529.777 397.82 528.91 397.603C528.693 397.603 528.368 397.603 527.717 397.712C527.501 398.579 527.175 399.554 527.067 400.638C524.14 423.835 521.214 447.031 518.395 470.228C515.577 492.991 512.867 515.862 509.941 538.516C507.014 562.363 503.979 586.21 500.944 610.057C500.294 615.26 499.21 620.463 497.584 625.449C493.79 637.156 484.685 642.575 473.195 644.635C463.114 646.478 452.817 646.694 442.627 645.068C439.159 644.526 435.582 644.526 432.222 644.093C423.55 643.117 414.77 642.25 406.098 640.949C391.574 638.998 377.049 636.83 362.415 634.771C361.765 634.771 361.115 634.771 360.139 634.771C357.538 664.363 354.828 697.965 352.118 727.882C353.31 727.99 372.604 730.267 380.409 731.026C382.577 731.134 382.794 727.557 383.336 726.148C387.888 715.091 399.27 705.77 410.651 702.518C421.274 699.483 433.414 701.109 442.411 713.574C444.037 715.85 445.771 716.717 448.589 717.151C459.862 718.994 470.593 722.462 479.915 729.4C481.433 730.592 483.384 731.351 485.227 732.326C491.188 735.361 497.475 737.963 503.329 741.323C515.035 748.369 521.539 759.1 524.032 772.324C526.091 783.489 525.875 794.653 524.682 805.818C522.84 824.353 519.046 842.455 511.133 859.365C501.052 880.936 485.552 897.303 463.548 906.95C449.24 913.237 434.498 914.863 419.323 910.419C409.567 907.492 401.871 901.964 396.235 893.726C391.357 886.572 387.888 878.984 387.021 870.204C387.021 869.771 387.021 869.446 386.913 869.012C381.926 849.826 388.43 834.217 401.546 820.668C406.64 815.357 412.711 811.346 419.431 808.311C420.732 807.661 422.032 807.119 423.55 806.252C422.358 803.325 421.274 800.507 420.081 797.58C418.347 798.014 416.938 798.339 415.312 798.664C402.63 801.591 391.574 797.146 384.419 786.307C380.192 779.912 378.133 771.565 378.241 763.869C378.241 760.726 377.699 761.376 374.664 761.051C366.209 760.292 357.754 759.75 348.866 759.1C346.806 780.996 344.855 802.566 342.904 824.028C356.454 826.63 365.45 834.109 369.786 846.574C374.122 859.148 371.52 870.53 362.957 880.068C364.366 886.68 365.884 892.967 366.968 899.363C368.702 909.443 368.594 919.524 367.943 929.605C367.51 935.892 366.968 942.287 365.884 948.465C365.017 953.235 363.499 957.896 361.765 962.34C359.163 968.844 354.502 973.179 348.216 976.215C342.254 979.033 335.967 980.442 329.572 981.526C298.462 986.295 267.245 987.488 235.919 983.911C225.838 982.718 215.974 980.442 206.652 976.323C184.214 966.459 171.207 949.333 168.822 924.944C166.763 902.181 175.001 883.103 192.561 868.362C200.474 861.75 210.121 858.823 220.31 858.606C240.58 857.956 257.381 865.76 271.472 879.852C272.448 880.827 273.423 881.694 274.399 882.67C274.399 882.67 274.616 882.67 274.941 882.778C276.458 880.068 277.867 877.358 279.385 874.432C278.951 873.781 278.626 873.131 278.193 872.481C269.629 860.449 269.846 847.008 279.06 835.41C285.238 827.714 293.151 822.944 302.798 821.21C303.991 820.993 305.183 820.776 306.158 820.56C309.627 798.881 309.952 777.418 311.47 755.523C306.592 754.981 301.823 754.656 297.053 753.897C288.273 752.488 279.493 751.187 270.713 749.127C251.636 744.683 241.122 732.001 236.894 713.357C235.051 704.902 235.268 696.448 236.244 687.993C238.086 672.817 240.146 657.751 242.097 642.684C243.073 634.663 243.94 626.641 244.915 618.295C240.58 617.645 236.677 616.994 232.667 616.452C216.841 614.501 201.124 612.116 185.298 610.816C170.015 609.515 161.668 600.193 155.923 587.511C154.406 584.259 154.406 580.14 154.081 576.346C153.43 569.192 154.514 562.038 155.381 554.992C157.983 534.181 160.584 513.477 163.186 492.665C165.787 471.637 168.389 450.608 170.99 429.58C173.808 406.6 176.627 383.729 179.445 360.749C179.77 357.931 180.095 355.221 180.42 352.294C174.459 352.944 169.039 353.703 163.511 354.137C145.843 355.438 128.391 354.57 111.481 349.042C86.2254 340.913 69.099 324.003 58.5847 299.939C54.5741 290.726 52.2978 281.079 51.3222 270.998C51.3222 269.914 50.9971 268.938 50.8887 267.855C29.2097 264.928 24.3319 241.515 38.0981 228.724C26.6082 220.811 19.4542 210.08 16.9611 196.531C14.3596 182.656 16.8527 170.191 27.5838 159.677C22.8144 150.138 21.6221 140.707 29.3181 131.602C36.4722 122.931 45.1437 119.354 56.5252 122.389C56.5252 121.196 56.8504 120.112 56.8504 119.137C56.8504 113.5 56.8504 107.755 56.8504 102.119C56.8504 94.8564 57.8259 87.594 60.2106 80.5483C61.7281 76.1041 63.896 72.0935 67.2563 68.8416C74.0851 62.0128 84.3827 62.1212 91.1031 69.1668C95.6557 73.8278 97.39 79.7895 98.1488 86.0764C99.3411 95.3984 98.3656 104.72 97.7152 114.042C97.2816 120.004 96.9565 126.074 96.5229 132.036C96.7397 132.036 97.0649 132.144 97.2816 132.253C97.8236 131.602 104.869 119.028 107.904 113.5C111.59 106.888 115.167 100.168 118.961 93.7725C121.562 89.3283 125.031 85.5345 129.15 82.2826C138.363 75.2369 148.986 77.6216 154.081 88.2443C157.224 94.748 157.224 101.577 156.14 108.514C154.731 116.969 151.371 124.665 146.384 131.385C141.29 138.214 135.87 144.718 130.667 151.438C129.583 152.739 128.499 154.04 127.09 155.883C128.933 156.75 130.234 157.509 131.643 158.159C145.517 163.904 151.045 174.31 148.119 189.16C146.059 199.783 140.423 208.346 133.486 216.259C127.632 222.979 120.587 228.074 112.782 232.409C112.132 232.843 111.481 233.277 110.506 233.819C111.265 235.011 112.023 236.095 112.674 237.287C115.6 242.165 116.142 247.151 114.083 252.462C110.397 262.11 102.159 267.746 91.9703 267.855C91.2115 267.855 90.4528 267.855 89.0436 267.855C89.3688 269.48 89.4772 270.89 89.9108 272.19C95.0054 291.485 107.471 303.733 126.44 309.153C142.591 313.706 158.958 314.031 175.434 311.863C178.578 311.429 181.83 310.887 185.515 310.454C186.057 306.118 186.707 301.565 187.358 297.121C189.959 275.984 192.669 254.847 195.271 233.602C197.872 212.79 200.365 192.087 202.858 171.275C205.46 150.68 207.953 130.085 210.554 109.381C213.481 86.4016 216.408 63.3135 219.009 40.2254C220.527 27.3264 231.583 14.7526 247.083 13.2351C251.636 12.8015 256.188 13.0183 260.741 13.6687C277.976 16.0534 295.211 18.2213 312.445 20.606C329.03 22.8822 345.614 25.1585 362.199 27.3264C381.384 29.9279 400.354 32.5294 419.539 35.2393C441.76 38.2743 463.981 41.201 486.094 44.236C489.454 44.6696 492.814 45.2116 496.175 45.7536C512.542 48.2466 527.826 53.8832 541.267 63.8555C555.466 74.4782 562.404 89.2199 562.404 106.888C562.404 114.476 561.428 121.955 560.561 129.434C558.285 148.512 555.9 167.481 553.515 186.558C551.239 204.877 548.963 223.304 546.687 241.623C544.085 262.435 541.484 283.138 538.882 303.95C537.039 318.15 535.305 332.349 533.462 346.549C533.462 347.958 533.462 349.476 533.354 350.885V350.343ZM410.651 894.376C410.759 894.268 410.976 893.943 411.085 893.835C411.085 893.835 410.976 893.835 410.868 893.835C410.868 894.051 410.759 894.268 410.651 894.485C415.746 898.495 421.599 900.772 427.994 901.747C439.592 903.59 450.649 901.314 461.163 896.544C479.915 887.764 493.248 873.348 501.703 854.704C511.783 832.158 515.577 808.203 514.71 783.597C514.385 776.66 513.193 769.939 510.049 763.652C507.448 758.341 503.871 754.114 498.017 750.645C498.559 752.162 498.776 752.921 499.101 753.572C502.353 760.834 504.521 768.53 505.28 776.551C507.339 802.133 503.112 826.63 492.056 849.826C485.01 864.568 475.038 877.033 460.946 885.813C446.204 895.027 430.487 898.821 413.361 894.268C412.602 894.16 411.627 894.376 410.759 894.485L410.651 894.376ZM534.329 66.3486C534.329 66.3486 534.329 66.1318 534.221 66.0234C534.221 66.0234 534.113 66.0234 533.896 66.0234C534.004 66.0234 534.113 66.2402 534.329 66.3486C535.522 66.7822 536.931 76.4293 537.148 77.9468C537.798 82.2826 536.931 86.1848 536.497 90.4122C535.522 98.4334 534.546 106.455 533.571 114.476C532.595 122.605 531.62 130.843 530.644 138.973C529.777 145.91 528.801 152.848 528.043 159.785C527.067 167.698 526.2 175.611 525.333 183.415C524.357 191.978 523.273 200.541 522.298 209.105C521.322 217.451 520.238 225.689 519.263 234.035C518.179 243.032 516.986 251.92 516.011 260.917C515.035 269.264 514.168 277.61 513.193 285.848C512 295.929 510.591 305.901 509.507 315.982C507.881 329.098 506.364 342.213 504.738 355.329C504.304 359.015 504.087 362.7 503.654 366.385C507.881 357.172 514.71 351.535 524.899 350.018C525.549 344.923 526.091 340.045 526.742 335.276C527.934 325.412 529.235 315.548 530.427 305.684C531.403 298.313 532.27 290.943 533.137 283.572C534.329 273.491 535.739 263.519 536.931 253.546C537.907 245.742 538.882 238.046 539.858 230.242C540.833 222.654 541.7 214.958 542.676 207.37C543.651 199.999 544.519 192.629 545.386 185.258C546.578 175.502 547.879 165.747 549.071 155.991C550.047 148.187 550.697 140.382 551.889 132.686C553.407 122.931 554.383 113.175 553.949 103.311C553.515 93.9892 551.131 85.2093 546.144 77.2964C543.001 72.7439 539.207 68.8416 534.113 66.5654L534.329 66.3486ZM528.043 85.8596C528.151 80.4399 526.525 75.6705 524.574 70.9011C521.214 62.9883 515.36 57.3518 506.797 55.8343C494.223 53.4496 481.541 51.8237 468.859 50.0893C459.645 48.7886 450.432 47.4879 441.218 46.2955C433.089 45.2116 424.959 44.0192 416.83 42.9353C405.34 41.4178 393.85 40.0086 382.36 38.3827C371.195 36.8652 359.922 35.2393 348.758 33.8301C339.978 32.6378 331.198 31.4454 322.309 30.3615C311.253 28.844 300.088 27.3264 289.032 25.8089C279.819 24.6166 270.605 23.3158 261.391 22.0151C250.877 20.4976 241.447 23.099 233.967 30.6867C228.873 35.7812 227.247 42.9353 226.271 49.8726C224.862 60.2785 223.67 70.6844 222.478 81.1987C221.502 88.6779 220.635 96.2655 219.768 103.636C218.792 111.549 217.817 119.462 216.841 127.266C215.866 134.746 214.998 142.225 214.023 149.704C213.047 157.183 212.18 164.771 211.205 172.142C210.012 181.897 208.712 191.653 207.519 201.408C206.544 209.213 205.676 217.017 204.701 224.713C203.509 234.794 202.208 244.766 201.015 254.847C200.04 262.652 199.064 270.348 198.089 278.152C197.222 285.198 196.246 292.352 195.379 299.397C194.187 309.045 192.994 318.692 191.91 328.23C190.935 336.36 189.851 344.598 188.875 352.619C187.9 360.532 186.924 368.445 185.949 376.249C184.973 383.512 184.106 390.774 183.239 397.928C182.046 407.467 180.854 416.897 179.77 426.436C178.795 434.457 177.711 442.479 176.735 450.5C175.759 458.304 174.892 466.109 173.917 473.805C172.941 481.067 172.074 488.546 171.098 495.809C170.123 503.18 169.256 510.55 168.497 517.921C167.305 528.219 165.896 538.516 164.703 548.814C163.944 555.534 163.186 562.146 162.535 568.867C161.777 577.538 162.535 585.885 168.931 592.714C171.857 595.857 174.676 599.434 179.12 600.41C184.865 601.71 190.826 603.011 196.68 603.228C200.582 603.336 204.484 603.553 208.278 604.095C210.879 604.529 213.589 604.962 216.299 605.288C228.873 607.022 241.447 608.756 253.912 610.382C268.112 612.442 282.203 614.501 296.294 616.561C310.711 618.62 325.127 620.463 339.544 622.522C353.744 624.582 367.835 626.641 381.926 628.701C397.102 630.869 412.385 633.145 427.561 635.096C432.33 635.746 437.208 635.963 441.869 633.795C448.372 630.652 454.443 627.075 459.429 621.655C462.572 618.187 464.848 614.284 465.607 609.623C466.366 604.204 467.125 599.001 467.667 593.581C468.642 585.776 469.509 577.972 470.377 570.276C471.352 562.363 472.219 554.45 473.195 546.538C474.17 538.733 475.146 530.712 476.121 522.908C477.097 515.103 477.964 507.299 478.831 499.603C479.807 491.581 480.782 483.56 481.758 475.431C482.734 467.518 483.601 459.605 484.468 451.692C485.66 441.503 486.961 431.422 488.153 421.233C489.129 413.32 490.104 405.408 491.08 397.603C492.056 389.799 492.923 381.994 493.898 374.298C494.874 366.277 495.741 358.147 496.716 350.126C497.692 342.213 498.668 334.301 499.643 326.496C500.619 318.692 501.486 310.887 502.461 303.191C503.654 293.11 504.954 283.138 506.147 273.057C507.122 265.036 507.99 256.907 508.965 248.885C509.941 240.864 511.025 232.843 511.892 224.822C512.867 217.234 513.734 209.538 514.602 201.95C515.794 191.653 517.095 181.355 518.287 171.058C518.937 165.096 519.805 159.026 520.455 152.956C521.431 145.368 522.298 137.672 523.165 130.085C524.032 122.497 525.008 114.801 525.766 107.213C526.633 100.168 527.392 92.9053 528.151 85.6428L528.043 85.8596ZM281.119 891.233C283.396 896.87 285.672 902.072 287.515 907.384C288.49 910.311 286.973 912.912 284.479 913.562C281.878 914.213 279.71 912.912 278.518 909.877C277.867 908.034 277.542 906.191 276.675 904.457C266.052 882.236 248.926 869.337 224.104 867.82C210.554 866.953 199.281 872.047 190.718 882.778C185.623 889.174 181.938 896.436 179.662 904.24C175.651 917.898 177.06 930.906 183.456 943.479C184.106 944.672 185.19 946.081 186.382 946.514C191.368 948.14 196.463 949.658 201.557 950.742C221.177 955.294 241.013 956.595 261.066 956.703C288.49 956.703 315.806 954.21 342.796 949.766C347.348 949.116 351.793 948.14 356.67 947.273C358.73 926.57 360.139 906.3 354.286 886.03C352.443 886.68 351.034 887.222 349.625 887.873C345.072 889.499 340.52 890.474 335.75 890.257C333.366 890.257 331.848 888.632 331.523 886.572C331.198 884.513 332.173 882.561 334.341 881.694C335.533 881.261 336.943 881.152 338.352 880.827C341.387 880.177 344.53 879.635 347.348 878.659C362.307 873.348 365.884 856.221 358.296 844.623C354.611 838.987 349.408 835.085 342.579 833.675C342.001 835.771 342.073 837.433 342.796 838.661C344.422 841.588 344.097 844.406 342.796 847.225C341.278 850.368 339.11 852.97 336.075 854.487C326.862 859.04 317.648 859.582 308.651 854.379C303.665 851.452 301.606 846.791 301.497 841.155C301.497 838.661 301.931 836.277 304.099 834.651C305.725 833.459 305.833 832.158 304.966 830.424C295.861 831.941 289.032 836.602 284.479 844.298C278.951 853.728 280.794 863.376 289.032 870.421C292.826 873.673 297.162 876.166 301.823 878.009C303.232 878.551 304.641 878.984 305.833 879.852C308.218 881.261 308.977 883.537 308.109 885.813C307.242 887.873 304.966 888.957 302.365 888.415C300.955 888.09 299.546 887.548 298.137 886.897C294.235 885.055 290.441 883.212 286.431 881.261C284.588 884.512 282.745 887.981 281.011 891.125L281.119 891.233ZM429.078 792.052C430.596 795.954 432.005 799.423 433.522 803.108C435.365 802.783 436.666 802.349 438.183 802.241C443.061 801.916 447.83 801.699 452.708 801.59C453.901 801.59 455.093 802.024 456.177 802.458C458.453 803.433 459.429 805.493 459.104 807.661C458.778 809.829 457.261 811.563 454.876 811.996C453.901 812.105 452.708 811.996 451.733 811.996C448.806 811.996 445.771 811.888 442.844 812.213C434.064 813.297 425.718 816.115 418.13 820.668C406.857 827.605 398.836 837.144 396.126 850.368C392.657 866.736 401.763 880.827 418.239 884.404C425.826 886.03 433.306 885.596 440.676 883.32C455.201 878.876 466.366 869.988 475.038 857.631C484.793 843.973 490.104 828.472 493.031 811.996C495.416 798.664 496.391 785.114 493.79 771.674C491.73 760.834 487.611 750.97 479.807 742.949C477.639 740.781 475.254 738.83 472.761 736.987C466.041 731.893 458.128 729.291 449.456 727.665C449.565 729.183 449.782 730.375 449.89 731.567C449.89 734.386 450.107 737.204 449.782 740.022C449.456 742.624 447.288 744.033 444.904 744.141C442.519 744.141 440.568 742.624 439.809 740.239C439.484 739.263 439.592 738.18 439.484 737.096C439.376 734.819 439.376 732.543 438.942 730.267C436.341 714.658 423.333 707.721 409.025 714.007C407.182 714.766 405.34 715.742 403.605 716.934C400.679 718.885 398.077 721.162 396.126 724.413C401.221 727.557 404.256 732.001 405.448 737.746C407.074 745.225 406.424 752.488 403.389 759.533C401.004 764.953 397.21 768.964 391.248 770.59C390.598 770.698 390.056 771.023 389.406 771.24C391.248 785.114 403.605 792.485 416.179 787.066C422.9 784.139 428.428 779.803 432.005 773.191C432.655 771.999 433.306 770.806 434.281 769.831C435.907 768.097 438.292 767.771 440.243 768.855C442.194 769.939 443.278 771.999 442.736 774.275C442.411 775.684 441.76 777.093 441.11 778.394C438.183 783.814 434.173 788.15 429.078 791.943V792.052ZM87.0925 136.372C87.7429 125.424 88.2849 115.126 89.0436 104.937C89.4772 97.2411 90.0192 89.5451 87.8513 81.9574C87.2009 79.6811 86.0086 77.4048 84.4911 75.6705C81.3476 72.0935 76.5782 72.2019 73.6516 75.6705C72.134 77.5132 70.9417 79.6811 69.9661 81.849C67.5815 87.3772 66.8227 93.3389 66.6059 99.3006C66.2807 109.273 66.1723 119.245 65.9555 129.218C65.9555 130.302 65.9555 131.385 66.3891 132.361C69.641 141.358 70.5081 150.788 70.5081 160.218C70.5081 164.988 69.7494 169.649 67.5815 173.985C63.0289 183.415 52.9482 186.342 44.0598 181.03C40.0492 178.646 37.0141 175.285 34.1959 171.492C33.5455 170.516 32.7867 169.649 31.7028 168.348C30.6188 169.974 29.6433 171.275 28.8845 172.575C25.3075 179.296 24.6571 186.342 25.9579 193.821C27.8006 203.576 32.2448 211.923 40.1576 218.101C43.1926 220.486 46.6613 222.654 50.7803 222.112C53.4901 221.678 55.8748 220.703 58.5847 220.378C62.2701 219.944 70.8333 218.752 71.3753 224.28C71.5921 226.665 70.0745 228.616 67.4731 229.158C66.1723 229.483 64.7632 229.266 63.4625 229.483C60.1022 229.916 56.742 230.133 53.4901 231C49.2627 231.976 45.3605 234.144 42.6507 237.612C39.5072 241.515 38.8568 245.85 40.5912 250.511C41.2415 252.571 42.4339 254.197 44.8186 255.281C46.4445 248.018 51.539 244.766 57.9343 244.116C68.3402 242.924 78.7461 244.008 88.9352 246.392C93.1626 247.368 95.9809 250.186 96.8481 254.63C96.9565 255.389 97.0649 256.148 97.2816 257.232C101.401 255.714 103.46 252.679 105.194 249.211C106.82 246.067 106.387 243.032 104.002 240.647C102.159 238.805 99.7747 237.179 97.4984 236.095C94.2466 234.469 90.7779 233.493 87.4177 232.084C84.4911 230.892 83.1903 228.507 83.9491 226.014C84.7078 223.413 87.4177 222.329 90.6696 223.413C91.6451 223.738 92.7291 224.063 93.7046 224.497C96.5229 225.472 99.2327 226.556 101.943 227.64C104.978 225.906 108.013 224.388 110.939 222.762C121.779 216.475 130.342 207.695 136.087 196.531C139.23 190.352 140.423 183.74 138.905 176.911C138.038 172.901 135.979 170.082 132.185 168.348C131.101 167.915 130.017 167.373 128.825 166.939C123.405 164.988 119.177 161.736 115.492 157.4C113.216 154.69 110.939 152.089 108.446 149.596C105.628 146.778 102.268 144.718 98.2572 144.068C93.7046 143.2 90.3444 144.935 89.3688 149.487C88.7184 152.522 88.6101 155.991 89.3688 159.026C91.9703 170.191 102.918 179.621 114.191 181.247C115.384 181.355 116.576 181.464 117.768 181.897C120.045 182.548 121.345 184.282 121.237 186.233C121.237 188.293 119.719 190.135 117.551 190.461C115.492 190.786 113.216 190.677 111.156 190.352C106.604 189.593 102.268 187.859 98.5824 185.149C95.4389 182.873 92.4039 182.981 89.0436 183.957C83.0819 185.691 78.2041 188.835 74.3019 193.496C72.2424 195.989 70.8333 198.915 69.099 201.625C67.6899 203.793 65.7387 204.769 63.6792 204.01C61.403 203.251 59.9938 201.083 60.5358 198.59C60.861 197.181 61.403 195.664 62.1617 194.471C66.9311 186.016 73.6516 179.838 82.5399 176.153C83.8407 175.611 85.1414 175.069 86.3338 174.635C84.4911 170.841 82.4316 167.589 81.1308 164.121C77.0118 153.281 79.5049 143.309 87.4177 136.372H87.0925ZM559.802 569.192C557.201 571.143 554.491 572.769 552.215 574.72C543.109 582.308 545.928 598.35 557.092 602.361C560.886 603.662 564.788 603.77 568.691 602.686C574.11 601.168 578.88 598.459 582.999 594.556C584.083 593.581 585.167 592.497 586.467 591.738C588.31 590.546 590.153 590.763 591.67 592.172C593.188 593.473 593.621 595.857 592.538 597.7C591.996 598.675 591.128 599.651 590.261 600.518C586.359 604.312 582.023 607.455 576.929 609.623C575.845 610.057 574.869 610.707 574.002 611.141C576.062 618.295 582.348 622.631 589.394 622.089C596.982 621.547 607.713 615.585 610.206 605.396C610.423 604.204 610.856 603.011 611.398 601.927C612.591 599.759 614.758 599.001 616.926 599.651C618.878 600.301 620.07 602.144 620.07 604.42C620.07 605.071 619.853 605.721 619.636 606.48C618.119 612.875 615.084 618.295 610.206 622.631C609.23 623.498 608.255 624.365 606.737 625.666C608.797 626.316 610.206 626.858 611.832 627.183C617.468 628.159 622.996 627.4 627.983 624.69C641.098 617.645 647.711 606.588 647.277 591.738C647.169 586.535 646.301 581.332 644.459 576.78C639.581 577.213 635.245 578.08 630.801 577.864C621.045 577.43 611.94 574.503 603.594 569.517C595.681 564.856 590.912 557.919 588.852 549.139C587.66 544.044 587.335 538.95 588.31 533.855C588.852 530.82 589.611 527.894 590.37 524.533C588.852 524.1 587.443 523.666 586.142 523.449C575.953 522.04 566.523 524.208 558.285 530.495C551.239 535.806 547.554 542.961 547.662 551.849C547.662 555.968 548.529 559.979 551.131 563.772C552.648 562.905 554.057 562.146 555.575 561.279C554.599 560.304 553.841 559.437 553.299 558.678C552.215 557.052 552.215 555.318 553.299 553.8C554.383 552.174 556.008 551.524 557.851 551.957C558.827 552.174 559.911 552.608 560.778 553.258C565.981 557.594 568.474 563.556 570.208 569.842C570.859 572.01 569.341 573.961 567.39 574.72C565.439 575.371 563.379 574.72 561.97 572.877C561.428 572.01 560.886 570.926 559.911 569.409L559.802 569.192ZM518.937 395.544C511.458 393.918 507.448 390.666 504.954 383.403C503.762 379.826 502.57 376.033 502.787 372.239C502.57 376.249 501.594 380.368 501.161 384.379C500.185 392.292 499.318 400.205 498.451 408.117C497.475 416.139 496.391 424.16 495.524 432.181C494.549 439.769 493.681 447.465 492.814 455.052C491.839 463.182 490.755 471.42 489.888 479.55C488.912 487.354 488.153 495.158 487.286 502.854C485.769 515.103 484.143 527.46 482.734 539.709C481.541 549.789 480.349 559.762 479.265 569.842C478.181 579.164 476.663 588.486 475.796 597.808C475.146 605.721 474.604 613.634 471.135 621.005C467.883 627.617 463.114 633.362 456.827 637.264C456.177 637.698 455.743 638.24 454.551 639.324C463.222 638.673 471.027 637.806 477.856 633.904C485.118 629.676 490.43 623.281 492.056 614.609C493.031 609.515 493.356 604.204 494.007 599.001C494.982 591.413 495.849 583.717 496.716 576.129C498.234 564.423 499.752 552.608 501.269 540.901C502.461 531.146 503.654 521.39 504.738 511.526C505.93 502.204 507.231 492.882 508.423 483.56C509.941 471.42 511.35 459.171 512.759 447.031C514.493 433.157 516.336 419.282 518.179 405.299C518.612 402.264 518.829 399.229 519.154 395.76L518.937 395.544ZM314.18 723.763C316.564 692.871 318.949 659.702 321.334 628.918C308.76 627.075 296.62 625.449 284.371 623.715C284.263 624.907 283.938 625.557 283.938 626.316C282.42 641.383 280.794 656.341 279.385 671.408C278.626 680.297 277.217 689.077 278.084 698.073C278.735 704.577 281.553 709.78 286.756 713.899C294.56 720.078 303.774 723.871 314.18 723.655V723.763ZM197.98 959.955C197.98 960.172 197.872 960.389 197.655 960.606C200.257 962.232 202.75 963.966 205.568 965.375C216.408 971.12 228.331 973.613 240.471 975.022C256.514 976.865 272.556 976.973 288.598 976.215C303.882 975.564 319.057 974.372 333.907 971.012C337.918 970.036 341.929 968.627 345.614 966.784C349.3 965.05 351.793 961.906 353.093 957.571C352.118 957.679 351.576 957.679 351.142 957.787C339.544 959.522 327.946 961.581 316.239 962.774C301.389 964.291 286.322 965.158 271.472 965.809C253.262 966.567 235.051 965.7 216.95 963.099C210.554 962.34 204.267 961.039 197.872 959.955H197.98ZM614.65 520.74C612.049 519.114 609.989 519.547 607.93 520.089C602.51 521.824 599.692 525.943 598.391 531.254C597.09 536.565 596.982 541.877 598.174 547.296C599.366 552.716 601.968 557.052 606.629 560.195C615.3 566.049 624.839 568.975 635.245 568.325C643.049 567.891 649.445 564.314 654.106 557.919C658.984 551.09 658.116 540.576 652.263 534.831C649.553 538.842 646.627 542.744 644.35 546.971C642.833 549.789 640.665 551.199 637.847 551.957C628.525 554.45 620.612 552.066 614 545.02C609.556 540.251 608.255 535.156 611.29 529.194C612.482 526.485 613.566 523.666 614.758 520.74H614.65ZM120.695 148.078C126.331 142.875 138.905 126.399 142.374 119.787C145.192 114.367 147.035 108.623 147.468 102.444C147.685 98.4334 147.468 94.5312 145.301 91.0626C142.916 87.1604 139.772 86.2932 136.087 89.0031C133.594 90.8458 131.209 93.0137 129.475 95.5068C126.44 99.6258 123.838 104.07 121.345 108.514C116.359 117.619 111.59 126.833 106.712 136.046C106.712 136.155 106.712 136.48 106.712 136.046C111.59 140.274 116.142 144.176 120.695 148.078ZM61.0778 159.568C61.403 153.498 60.5358 147.428 59.2351 141.575C58.9099 140.382 58.5847 139.081 58.2595 137.889C56.5252 132.361 52.8398 129.976 47.2032 130.518C41.1331 131.06 33.5455 138.973 33.1119 145.043C33.1119 146.019 33.1119 146.886 33.4371 147.861C35.063 154.148 37.5561 160.11 41.3499 165.53C43.1926 168.131 45.4689 170.624 48.0704 172.575C53.165 176.369 57.8259 174.96 59.6686 168.782C60.5358 165.855 60.9694 162.82 61.1862 159.677L61.0778 159.568ZM317.106 802.349C318.624 802.349 320.792 790.751 321.117 788.15C322.092 782.73 322.96 777.527 323.718 772.107C325.995 756.932 329.247 716.501 329.138 711.623C329.138 710.43 329.68 708.696 328.271 708.263C326.862 707.829 325.669 714.007 325.236 716.717C324.586 721.162 321.117 747.393 320.033 756.065C319.166 763.652 315.48 802.241 317.106 802.241V802.349ZM614.975 421.992C614.216 423.076 616.818 425.677 618.119 427.086C625.706 435.541 630.801 445.297 634.27 456.028C636.112 461.664 637.521 467.518 639.039 473.371C639.472 474.997 641.749 488.221 643.808 487.896C645.651 487.679 645.001 481.392 645.001 480.308C645.001 476.84 644.784 473.263 644.35 469.686C642.616 455.052 637.63 440.744 627.874 429.471C625.923 427.195 623.864 424.593 621.154 423.076C620.178 422.317 616.168 420.474 615.084 421.884L614.975 421.992Z" fill="#070808"/>
<path d="M287.516 907.164C288.492 910.09 286.866 912.692 284.481 913.342C281.88 913.993 279.603 912.692 278.519 909.657C277.869 907.814 277.435 905.971 276.677 904.237C266.054 882.016 248.927 869.117 224.105 867.6C210.556 866.732 199.283 871.827 190.719 882.558C185.625 888.953 182.048 896.216 179.663 904.02C175.653 917.57 177.062 930.685 183.457 943.259C184.107 944.452 185.191 945.861 186.384 946.294C191.37 947.92 196.464 949.438 201.559 950.522C221.178 955.074 241.123 956.375 261.068 956.483C288.492 956.483 315.807 953.99 342.797 949.546C347.35 948.896 351.794 948.029 356.672 947.053C358.84 926.458 360.141 906.08 354.287 885.81C352.336 886.46 351.035 887.111 349.626 887.653C345.182 889.279 340.521 890.254 335.752 890.037C333.367 890.037 331.849 888.52 331.524 886.352C331.199 884.292 332.175 882.341 334.343 881.474C335.535 881.041 336.944 880.932 338.353 880.607C341.388 879.957 344.532 879.415 347.35 878.439C362.308 873.236 365.885 856.001 358.298 844.403C354.612 838.658 349.409 834.756 342.581 833.455C342.075 835.551 342.147 837.213 342.797 838.441C344.315 841.368 344.098 844.186 342.797 847.005C341.28 850.148 339.112 852.75 336.077 854.267C326.972 858.82 317.65 859.362 308.653 854.159C303.667 851.34 301.607 846.571 301.499 840.935C301.499 838.441 301.933 836.057 304.1 834.431C305.726 833.238 305.835 831.829 304.968 830.203C295.971 831.721 289.142 836.382 284.481 844.078C278.953 853.508 280.687 863.047 289.034 870.201C292.827 873.453 297.163 875.838 301.824 877.789C303.125 878.331 304.642 878.764 305.835 879.631C308.219 881.041 308.978 883.317 308.111 885.593C307.244 887.653 304.968 888.737 302.366 888.195C300.849 887.869 299.439 887.327 298.139 886.677C294.345 884.834 290.551 882.992 286.432 881.041C284.589 884.509 282.747 888.086 281.012 891.121C283.289 896.758 285.565 901.961 287.408 907.055L287.516 907.164Z" fill="#C6EAFB"/>
<path d="M433.523 803.103C435.366 802.778 436.667 802.345 438.184 802.236C443.062 801.911 447.831 801.694 452.709 801.586C453.901 801.586 455.094 802.02 456.178 802.453C458.346 803.429 459.43 805.38 459.104 807.656C458.888 809.824 457.262 811.667 454.877 811.992C453.901 812.1 452.818 811.992 451.734 811.992C448.807 811.992 445.772 811.883 442.845 812.209C433.957 813.293 425.61 816.002 418.131 820.663C406.858 827.601 398.837 837.139 396.127 850.364C392.767 866.84 401.872 880.823 418.24 884.4C425.827 886.025 433.306 885.592 440.677 883.316C455.202 878.871 466.367 869.875 475.038 857.626C484.794 843.968 490.105 828.468 493.032 811.992C495.417 798.659 496.392 785.11 493.791 771.669C491.731 760.829 487.612 750.966 479.808 742.944C477.64 740.776 475.255 738.825 472.762 736.983C466.042 731.888 458.129 729.287 449.457 727.661C449.566 729.178 449.891 730.371 449.891 731.563C449.891 734.381 450.108 737.199 449.782 740.018C449.349 742.619 447.289 744.028 444.905 744.137C442.52 744.137 440.569 742.619 439.81 740.234C439.593 739.259 439.593 738.175 439.485 737.091C439.377 734.815 439.377 732.538 438.943 730.262C437.534 722.349 432.873 714.87 424.852 712.485C412.495 708.8 399.921 713.027 393.309 723.216C392.767 724.084 389.623 729.178 389.623 732.647C392.767 732.538 396.127 732.647 399.27 733.297C402.089 733.839 404.907 735.357 405.666 738.392C406.967 743.811 406.641 749.882 405.232 755.193C402.956 763.973 394.068 760.938 387.347 761.046C387.13 761.046 387.239 764.19 387.347 767.55C387.455 770.585 387.781 773.728 387.889 774.27C388.865 778.715 391.249 782.292 394.826 785.002C401.005 789.554 409.351 790.096 416.288 787.169C423.009 784.243 428.537 779.907 432.114 773.295C432.764 772.103 433.415 770.91 434.39 769.935C436.016 768.092 438.401 767.875 440.352 768.959C442.303 769.935 443.387 772.103 442.845 774.379C442.52 775.896 441.87 777.197 441.219 778.498C438.293 783.918 434.282 788.145 429.187 791.939C430.705 795.949 432.114 799.31 433.632 803.103H433.523Z" fill="#C6EAFB"/>
<path d="M552.321 574.723C543.108 582.311 546.035 598.353 557.199 602.364C560.993 603.665 564.895 603.665 568.797 602.689C574.217 601.172 578.987 598.462 583.106 594.56C584.19 593.584 585.273 592.5 586.574 591.741C588.309 590.657 590.151 590.766 591.777 592.175C593.295 593.367 593.728 595.86 592.644 597.703C592.102 598.679 591.235 599.654 590.368 600.521C586.466 604.315 582.022 607.459 577.035 609.626C576.06 610.06 574.976 610.71 574.109 611.144C576.06 618.298 582.347 622.525 589.501 621.983C597.089 621.441 607.928 615.48 610.313 605.291C610.529 604.098 610.963 602.906 611.505 601.822C612.697 599.654 614.865 598.895 617.033 599.546C618.984 600.196 620.177 602.039 620.177 604.315C620.177 604.965 619.96 605.724 619.743 606.375C618.225 612.77 615.299 618.19 610.313 622.525C609.337 623.393 608.362 624.26 606.844 625.56C608.904 626.211 610.313 626.753 611.939 627.078C617.575 627.945 622.995 627.295 628.089 624.585C641.097 617.539 647.817 606.483 647.384 591.633C647.275 586.322 646.408 581.227 644.565 576.674C639.688 577.108 635.352 577.867 630.908 577.758C621.152 577.325 612.047 574.398 603.701 569.412C595.896 564.751 590.91 557.922 588.959 549.034C587.767 543.939 587.441 538.845 588.417 533.75C588.959 530.715 589.718 527.788 590.476 524.428C588.959 523.995 587.55 523.453 586.249 523.344C576.06 522.043 566.63 524.211 558.392 530.39C551.346 535.701 547.66 542.855 547.769 551.744C547.769 555.863 548.636 559.873 551.237 563.667C552.755 562.8 554.164 562.041 555.682 561.174C554.815 560.198 553.947 559.331 553.405 558.572C552.321 557.055 552.321 555.321 553.405 553.695C554.489 552.069 556.115 551.418 557.958 551.852C558.933 552.069 560.017 552.502 560.885 553.153C566.088 557.38 568.581 563.45 570.315 569.737C570.857 571.797 569.448 573.856 567.497 574.615C565.546 575.265 563.486 574.615 562.077 572.772C561.427 571.797 560.885 570.713 559.909 569.195C557.308 571.146 554.598 572.772 552.43 574.832L552.321 574.723Z" fill="#FAF9F6"/>
<path d="M410.652 894.483C415.747 898.494 421.6 900.77 427.995 901.746C439.594 903.588 450.65 901.421 461.164 896.543C480.025 887.871 493.249 873.455 501.704 854.702C511.893 832.156 515.687 808.201 514.711 783.595C514.386 776.658 513.194 769.938 510.05 763.651C507.449 758.448 503.872 754.112 498.018 750.643C498.56 752.161 498.777 752.92 499.102 753.57C502.354 760.832 504.522 768.529 505.281 776.55C507.34 802.131 503.113 826.628 492.057 849.825C485.011 864.566 475.039 877.032 460.947 885.812C446.206 895.025 430.489 898.819 413.362 894.266C412.495 894.05 411.519 894.267 410.761 894.375L410.652 894.483Z" fill="#FAF9F6"/>
<path d="M197.656 960.823C200.257 962.341 202.75 964.183 205.569 965.593C216.517 971.338 228.332 973.831 240.472 975.24C256.514 977.082 272.557 977.191 288.599 976.432C303.883 975.782 319.058 974.589 333.908 971.229C337.919 970.254 341.929 968.844 345.615 967.002C349.3 965.267 351.793 962.124 353.094 957.788C352.118 957.788 351.576 957.897 351.143 958.005C339.436 959.739 327.946 961.799 316.24 962.991C301.39 964.509 286.323 965.376 271.473 966.026C253.154 966.785 234.944 965.918 216.95 963.316C210.555 962.449 204.268 961.257 197.873 960.173C197.873 960.39 197.764 960.715 197.547 960.932L197.656 960.823Z" fill="#FAF9F6"/>
<path d="M607.929 520.085C602.401 521.819 599.691 525.938 598.39 531.249C597.089 536.561 596.981 541.872 598.173 547.292C599.366 552.712 601.967 557.047 606.628 560.191C615.3 566.044 624.838 568.971 635.244 568.32C643.049 567.887 649.444 564.31 654.105 557.915C658.983 551.194 658.116 540.68 652.262 534.826C649.661 538.837 646.626 542.739 644.349 546.967C642.832 549.785 640.664 551.194 637.846 551.953C628.524 554.446 620.611 552.061 613.999 545.016C609.555 540.246 608.254 535.152 611.289 529.19C612.59 526.588 613.565 523.77 614.758 520.844C612.156 519.218 609.988 519.651 608.037 520.193L607.929 520.085Z" fill="#FAF9F6"/>
<path d="M142.267 119.567C145.194 114.147 147.036 108.402 147.361 102.223C147.687 98.2129 147.361 94.3106 145.194 90.842C142.809 87.0482 139.665 86.0726 135.98 88.7825C133.595 90.6252 131.102 92.7931 129.368 95.2862C126.333 99.4052 123.731 103.741 121.238 108.294C116.252 117.399 111.483 126.612 106.605 135.826C106.605 136.043 106.605 136.368 106.605 135.826C111.591 140.053 116.144 144.064 120.696 148.074C126.333 142.872 138.907 126.396 142.267 119.567Z" fill="#FAF9F6"/>
<path d="M534.113 66.0208C534.113 66.0208 533.896 66.0208 533.788 66.0208C533.896 66.0208 534.113 66.2376 534.222 66.346C534.222 66.346 534.222 66.1292 534.113 66.0208Z" fill="#194790"/>
<path d="M410.652 894.377C410.869 894.269 411.086 893.943 411.194 893.835C411.194 893.835 411.086 893.835 410.977 893.835C410.977 893.943 410.869 894.269 410.761 894.485L410.652 894.377Z" fill="#FAF9F6"/>
<path d="M182.589 522.686C183.889 512.605 185.19 502.633 186.491 492.661C187.683 482.905 188.875 473.15 190.068 463.286C191.585 451.796 193.103 440.306 194.62 428.816C195.813 419.169 197.005 409.522 198.197 399.983C199.715 388.385 201.232 376.678 202.75 365.08C203.725 357.275 204.593 349.579 205.568 341.775C206.435 335.055 207.303 328.442 208.17 321.722C209.145 313.701 210.229 305.68 211.205 297.658C212.397 287.903 213.806 278.147 214.999 268.392C216.191 258.745 217.383 249.097 218.576 239.559C219.443 232.513 220.418 225.359 221.285 218.313C222.478 208.558 223.779 198.802 224.971 189.047C226.163 179.4 227.464 169.861 228.656 160.214C229.632 152.734 230.499 145.147 231.475 137.776C232.45 130.297 233.317 122.709 234.293 115.338C235.268 107.425 236.244 99.5126 237.219 91.7082C238.087 84.8793 238.954 78.0505 239.821 71.2216C240.58 65.2599 241.23 59.1898 242.206 53.1196C242.639 50.4098 243.29 47.4831 244.374 44.99C247.517 37.836 253.587 36.752 259.007 37.5108C272.665 39.4619 286.214 41.6298 299.763 43.4725C314.722 45.532 329.68 47.4831 344.639 49.4342C359.38 51.4937 374.014 53.5532 388.647 55.6127C399.27 57.1303 410.001 58.431 420.732 59.8401C431.571 61.3577 442.411 62.8752 453.142 64.3927C461.922 65.585 470.81 66.7774 479.59 67.8613C483.493 68.4033 487.395 68.7285 491.189 69.4873C498.776 71.2216 505.063 74.907 507.231 83.145C507.881 85.7465 507.881 88.7815 507.665 91.5998C506.581 101.464 505.28 111.328 503.979 121.3C502.787 131.164 501.594 141.136 500.511 151C499.318 160.539 498.126 169.969 497.042 179.508C496.066 187.421 495.091 195.334 494.115 203.138C493.14 211.159 492.056 219.18 491.189 227.202C490.213 235.006 489.346 242.811 488.479 250.507C487.503 258.094 486.636 265.79 485.769 273.378C484.793 281.182 483.818 288.878 482.842 296.683C481.867 305.029 480.783 313.267 479.807 321.614C478.832 329.418 477.964 337.222 477.097 344.918C475.905 354.457 474.713 363.888 473.629 373.426C472.653 381.339 471.786 389.252 470.702 397.056C469.726 405.078 468.642 413.099 467.775 421.12C466.8 429.033 465.933 436.946 464.957 444.75C464.09 452.013 463.114 459.275 462.356 466.429C461.38 474.342 460.404 482.255 459.429 490.059C458.453 498.08 457.586 506.21 456.611 514.231C455.635 522.036 454.66 529.732 453.684 537.536C452.492 547.617 451.191 557.589 449.999 567.67C449.023 575.474 448.156 583.279 447.18 590.975C446.53 595.852 445.988 600.839 444.796 605.716C443.278 612.329 439.267 616.881 432.547 619.049C427.019 620.892 421.599 621.217 415.854 620.241C404.798 618.399 393.742 616.773 382.685 615.147C372.713 613.629 362.741 612.112 352.768 610.703C342.688 609.185 332.499 607.776 322.309 606.367C308.326 604.307 294.344 602.139 280.361 600.188C269.521 598.671 258.682 597.262 247.951 595.636C240.363 594.552 232.775 593.251 225.188 592.167C214.782 590.65 204.376 589.024 193.97 587.723C184.431 586.53 178.47 580.569 178.036 571.03C178.036 569.404 181.721 530.707 182.697 522.903L182.589 522.686ZM497.801 87.264C496.933 82.1695 495.308 78.5924 488.587 77.8337C475.796 76.3161 462.897 74.4734 450.107 72.7391C419.431 68.5117 388.864 64.2843 358.297 60.0569C328.922 56.0463 299.438 52.0357 270.063 48.0251C266.703 47.5915 263.343 47.0495 259.982 46.8327C254.671 46.3992 252.178 48.1335 250.877 53.3364C250.444 55.0708 250.227 56.8051 249.902 58.5394C246.433 85.8549 242.856 113.17 239.496 140.594C235.81 169.644 232.233 198.802 228.548 227.852C224.321 260.912 220.093 294.081 215.974 327.142C211.422 362.587 206.977 398.14 202.642 433.694C198.631 465.453 194.62 497.213 190.61 528.973C188.984 541.763 187.141 554.446 185.515 567.128C184.865 572.764 186.816 576.341 192.019 578.292C192.994 578.726 194.078 578.943 195.162 579.16C199.498 579.918 203.834 580.786 208.278 581.544C237.003 585.772 265.727 589.891 294.452 594.01C335.967 600.08 377.591 606.042 419.106 612.112C427.236 613.304 433.631 609.402 435.799 601.489C437.1 596.936 437.967 592.275 438.509 587.614C441.11 566.586 443.603 545.557 446.096 524.42C448.915 501.115 451.841 477.702 454.66 454.506C457.261 433.369 459.754 412.448 462.247 391.311C465.174 367.356 468.1 343.293 470.919 319.337C473.195 300.693 475.255 282.049 477.531 263.514C480.457 240.209 483.384 216.904 486.202 193.599C488.587 174.305 490.972 155.011 493.248 135.716C494.874 121.95 497.909 89.9739 497.475 87.5892L497.801 87.264Z" fill="#070808"/>
<path d="M222.043 882.238C212.505 881.263 203.291 884.623 197.329 892.102C192.018 898.714 187.574 911.505 191.368 919.743C192.127 921.477 193.969 922.995 195.704 922.453C197.004 922.019 197.763 920.61 198.305 919.201C199.714 915.082 200.039 910.746 201.448 906.627C202.532 903.375 204.592 900.34 206.868 897.739C211.312 892.536 217.166 888.634 222.911 885.165C223.886 884.515 224.428 883.973 224.428 883.431C224.428 882.78 223.561 882.238 222.152 882.238H222.043Z" fill="white"/>
<path d="M520.021 266.767C520.021 269.044 520.455 271.212 521.756 273.054C523.707 275.981 526.959 277.282 529.235 274.138C533.029 269.152 533.679 261.673 534.438 255.386C535.197 248.232 535.955 240.97 536.714 233.815C537.039 230.238 537.473 226.77 537.798 223.193C538.123 220.591 538.665 217.339 536.823 215.172C530.21 207.259 525.008 223.301 524.032 228.179C522.081 238.91 520.78 249.749 520.238 260.589C519.696 271.428 519.913 264.6 519.913 266.551L520.021 266.767Z" fill="#070808"/>
<path d="M493.465 135.176C491.08 154.47 488.804 173.764 486.419 193.058C483.492 216.363 480.566 239.668 477.747 262.973C475.471 281.617 473.412 300.261 471.135 318.796C468.209 342.752 465.282 366.815 462.464 390.771C459.862 411.908 457.369 432.828 454.876 453.965C452.058 477.27 449.131 500.683 446.313 523.879C443.711 545.016 441.327 565.937 438.725 587.074C438.075 591.735 437.208 596.396 436.015 600.948C433.739 608.861 427.344 612.655 419.323 611.571C377.807 605.609 336.184 599.539 294.669 593.469C265.944 589.241 237.219 585.122 208.495 581.003C204.05 580.353 199.715 579.486 195.379 578.619C194.295 578.51 193.319 578.185 192.235 577.752C187.032 575.692 184.973 572.115 185.732 566.587C187.249 553.796 189.2 541.114 190.826 528.432C194.837 496.672 198.847 464.913 202.858 433.153C207.302 397.708 211.746 362.154 216.191 326.601C220.418 293.54 224.645 260.372 228.764 227.311C232.45 198.261 236.027 169.103 239.604 140.053C243.073 112.738 246.541 85.314 250.01 57.9986C250.227 56.2642 250.443 54.5299 250.985 52.7956C252.286 47.701 254.779 45.8583 260.091 46.2919C263.451 46.6171 266.811 47.0507 270.171 47.4843C299.546 51.4949 329.03 55.5055 358.405 59.5161C389.08 63.7435 419.648 67.9709 450.215 72.1983C463.006 74.041 475.905 75.8837 488.695 77.2928C495.416 78.0516 497.15 81.5202 497.909 86.7232C498.342 89.1079 497.909 91.6009 497.909 93.9856C498.017 94.2024 495.199 121.301 493.573 134.85L493.465 135.176ZM432.33 250.183C432.33 247.798 432.222 245.522 432.33 243.137C432.98 232.189 433.847 221.35 434.389 210.402C434.931 199.345 435.473 188.289 433.197 177.341C432.33 173.114 430.812 168.995 428.319 165.418C421.924 156.421 410.543 153.928 401.004 159.239C397.318 161.299 393.958 164.009 391.79 167.586C388.864 172.247 385.829 176.908 383.661 182.002C377.699 196.202 375.748 211.377 374.664 226.661C374.23 232.297 374.013 237.934 373.797 243.679C371.737 244.546 369.678 245.522 367.293 246.497C358.405 236.2 347.565 231.755 333.907 235.332C333.907 234.357 333.691 233.707 333.799 232.948C334.558 223.734 335.642 214.412 336.075 205.09C336.617 194.793 337.051 184.279 337.051 173.981C337.051 170.187 335.967 166.177 334.558 162.6C330.547 151.435 320.683 147.424 309.627 152.085C303.123 154.795 298.462 159.564 294.56 165.201C290.875 170.729 288.165 176.691 286.322 183.195C282.095 198.261 280.36 213.654 280.36 229.262V232.731C278.843 233.381 277.651 233.923 276.35 234.574C272.339 236.525 268.437 238.801 265.51 242.161C263.559 244.329 263.451 246.931 265.185 248.665C266.811 250.399 269.087 250.399 271.364 248.665C271.689 248.448 272.014 248.231 272.339 247.906C281.986 239.777 293.151 237.5 305.291 239.777C311.145 240.861 316.564 243.245 321.442 246.822C321.334 247.581 321.225 248.123 321.008 248.665C318.407 256.253 318.841 263.84 321.659 271.211C325.886 282.051 333.691 289.963 343.446 296.034C344.205 296.467 345.18 296.792 346.048 297.009C348.107 297.334 350.058 296.359 350.925 294.733C351.684 293.107 351.359 291.047 349.841 289.638C348.866 288.663 347.674 288.121 346.59 287.254C340.194 283.026 334.883 277.715 331.306 270.778C328.813 265.791 327.621 260.588 328.704 255.06C330.439 246.064 337.701 241.403 346.698 243.462C354.611 245.305 360.139 250.183 363.608 257.337C365.45 261.022 366.534 265.249 367.943 269.043C368.377 270.236 368.594 271.428 369.244 272.512C370.22 274.355 372.279 275.005 374.122 274.355C375.965 273.704 377.049 272.403 377.157 270.452C377.157 269.152 376.94 267.743 376.507 266.442C375.314 262.323 373.905 258.312 372.388 253.868C374.339 253.218 376.073 252.35 378.024 251.808C393.525 247.147 408.483 248.882 422.9 255.494C428.536 258.095 433.522 261.456 437.641 265.9C439.484 267.851 442.085 267.959 443.82 266.442C445.662 264.924 445.879 262.431 444.253 260.263C443.061 258.637 441.652 257.12 440.134 255.819C437.533 253.76 434.715 251.808 432.222 249.966L432.33 250.183ZM366.751 337.115C367.293 338.091 367.727 338.958 368.16 339.717C371.954 346.437 376.073 352.941 381.276 358.686C384.745 362.696 389.08 365.406 394.392 366.165C405.123 367.683 414.12 364.105 421.274 356.084C425.501 351.206 427.452 345.462 427.344 338.85C427.344 332.346 425.176 326.384 422.141 320.748C420.081 316.845 417.588 313.16 415.42 309.366C419.539 304.922 423.55 300.586 427.561 296.25C428.536 295.166 429.512 293.866 430.162 292.673C431.138 290.614 430.596 288.446 428.97 287.254C427.344 286.061 425.284 286.061 423.333 287.579C422.683 288.229 422.032 288.879 421.382 289.638C419.106 292.131 417.046 294.733 414.662 297.226C395.476 316.412 373.58 330.07 345.614 331.479C342.471 331.587 340.628 333.321 340.52 335.706C340.52 338.308 342.362 339.933 345.614 340.259C346.264 340.259 346.915 340.259 347.674 340.259C352.226 339.608 356.779 339.066 361.331 338.416C363.174 338.199 365.017 337.766 366.968 337.332L366.751 337.115ZM315.155 111.654C312.554 109.269 310.928 108.619 307.784 108.402C301.823 108.077 295.969 109.053 290.441 111.437C285.889 113.388 281.878 115.99 278.951 120C276.567 123.252 275.266 126.938 276.35 130.948C277.434 134.85 281.336 135.934 284.154 133.116C285.455 131.924 286.539 130.189 287.623 128.672C292.717 122.06 298.571 116.423 307.026 114.472C309.844 113.822 312.337 112.63 315.155 111.546V111.654ZM429.945 127.805C432.655 128.78 435.04 130.081 437.641 130.623C446.421 132.683 452.491 138.319 457.803 145.256C458.778 146.449 459.537 147.641 460.404 148.833C461.813 150.568 463.548 151.326 465.824 150.676C468.1 150.026 468.967 148.183 469.293 146.124C469.401 145.148 469.293 143.956 469.293 142.98C468.642 138.428 466.149 135.067 462.572 132.357C454.984 126.396 446.204 124.228 436.774 124.878C434.389 124.878 432.005 125.637 430.054 127.913L429.945 127.805Z" fill="#C6EAFB"/>
<path d="M432.331 250.182C434.932 252.025 437.642 253.976 440.135 256.144C441.653 257.336 443.062 258.962 444.254 260.588C445.88 262.864 445.555 265.249 443.821 266.766C442.086 268.284 439.593 268.284 437.642 266.224C433.415 261.78 428.428 258.312 422.9 255.818C408.375 249.206 393.417 247.364 378.025 252.133C376.182 252.675 374.339 253.542 372.388 254.193C373.906 258.637 375.315 262.647 376.507 266.766C376.941 267.959 377.158 269.368 377.158 270.777C377.158 272.728 375.965 274.029 374.123 274.679C372.28 275.33 370.329 274.679 369.245 272.836C368.595 271.861 368.378 270.56 368.053 269.368C366.643 265.466 365.451 261.347 363.717 257.661C360.248 250.507 354.72 245.629 346.807 243.787C337.81 241.727 330.548 246.388 328.814 255.385C327.73 260.913 328.922 266.116 331.415 271.102C334.884 278.148 340.303 283.242 346.699 287.578C347.783 288.337 349.083 289.096 349.951 289.963C351.468 291.372 351.902 293.431 351.035 295.057C350.276 296.683 348.325 297.659 346.157 297.334C345.181 297.225 344.314 296.9 343.555 296.358C333.8 290.288 325.995 282.484 321.768 271.536C318.841 264.165 318.625 256.469 321.118 248.99C321.226 248.556 321.334 248.014 321.551 247.147C316.673 243.461 311.254 241.185 305.4 240.101C293.26 237.717 282.095 240.101 272.448 248.231C272.123 248.448 271.798 248.773 271.473 248.99C269.088 250.616 266.812 250.616 265.294 248.99C263.56 247.147 263.668 244.654 265.619 242.486C268.655 239.126 272.448 236.849 276.459 234.898C277.651 234.356 278.844 233.814 280.47 233.056V229.587C280.47 213.978 282.095 198.586 286.431 183.519C288.274 177.124 290.984 171.054 294.669 165.526C298.571 159.889 303.341 155.12 309.736 152.41C320.684 147.749 330.548 151.868 334.667 162.924C335.968 166.61 337.052 170.512 337.16 174.306C337.16 184.603 336.726 195.117 336.185 205.415C335.643 214.628 334.667 224.059 333.908 233.272C333.908 233.923 333.908 234.573 334.017 235.657C347.674 232.08 358.514 236.416 367.402 246.822C369.787 245.846 371.846 244.979 373.906 244.003C374.231 238.259 374.339 232.514 374.773 226.985C375.857 211.702 377.916 196.527 383.77 182.327C385.829 177.232 388.864 172.571 391.899 167.91C394.176 164.442 397.536 161.732 401.113 159.564C410.76 154.144 422.033 156.637 428.428 165.742C431.03 169.319 432.439 173.33 433.306 177.666C435.583 188.614 435.149 199.67 434.607 210.726C434.065 221.566 433.198 232.514 432.547 243.461C432.547 245.521 432.547 247.906 432.547 250.29L432.331 250.182ZM422.358 173.005C422.033 173.005 421.708 173.005 421.383 173.005C419.215 179.075 417.155 185.037 414.988 190.998C412.386 191.54 410.001 192.082 407.183 192.733C408.701 196.418 410.11 199.562 411.302 202.813C411.736 204.006 411.952 205.415 411.844 206.607C411.194 212.569 410.218 218.639 409.785 224.709C409.351 230.454 409.785 236.199 409.785 241.944C414.337 243.245 418.565 244.545 423.117 245.846C423.117 244.329 423.226 242.919 423.334 241.619C423.659 236.416 423.767 231.104 424.201 225.902C425.068 213.87 426.261 202.055 425.719 189.914C425.393 184.17 424.851 178.425 422.358 173.113V173.005ZM324.261 237.5C324.369 235.332 324.695 233.489 324.803 231.538C325.453 222.65 325.995 213.761 327.079 204.981C328.055 195.443 328.597 185.795 328.272 176.257C328.163 172.246 327.513 168.344 325.345 164.225C324.695 165.417 324.369 166.068 324.153 166.826C322.635 171.596 321.226 176.365 319.817 181.134C319.383 182.652 319.167 184.278 318.733 185.795C317.974 188.289 316.673 188.939 314.18 188.289C313.096 187.963 311.904 187.638 310.278 187.205C311.796 190.673 313.422 193.491 314.506 196.418C315.156 198.369 315.698 200.537 315.698 202.597C315.589 209.859 315.156 217.122 314.939 224.492C314.939 227.311 314.939 230.129 314.939 233.164C317.974 234.465 321.118 235.874 324.478 237.391L324.261 237.5Z" fill="#070808"/>
<path d="M366.751 337.116C364.8 337.55 363.066 337.984 361.115 338.2C356.562 338.851 352.01 339.393 347.457 340.043C346.807 340.043 346.157 340.043 345.398 340.043C342.146 339.826 340.086 338.092 340.303 335.491C340.303 333.106 342.254 331.48 345.398 331.263C373.364 329.854 395.259 316.196 414.445 297.01C416.83 294.626 418.998 291.916 421.166 289.423C421.816 288.772 422.358 287.905 423.117 287.363C424.96 285.846 427.127 285.846 428.753 287.038C430.379 288.339 430.921 290.398 429.946 292.458C429.295 293.759 428.428 294.951 427.344 296.035C423.334 300.371 419.323 304.706 415.204 309.151C417.48 312.836 419.865 316.63 421.924 320.532C424.96 326.169 427.127 332.022 427.127 338.634C427.127 345.138 425.285 350.991 421.057 355.869C414.012 363.998 404.906 367.467 394.175 365.949C388.864 365.191 384.637 362.372 381.06 358.47C375.857 352.725 371.846 346.222 367.944 339.501C367.51 338.851 367.077 337.984 366.535 336.9L366.751 337.116ZM408.158 315.546C403.823 318.581 400.029 321.291 396.235 323.892C398.62 329.529 411.085 350.015 413.253 351.858C416.721 348.498 418.347 344.812 418.456 340.477C418.564 330.83 413.686 323.35 408.158 315.546ZM388.214 328.445C383.661 330.504 379.65 332.455 375.315 334.407C379.325 341.561 383.228 348.064 388.539 353.701C389.514 354.676 390.598 355.544 391.682 356.194C395.91 358.47 400.246 358.687 405.015 356.519C399.378 346.98 393.85 337.875 388.214 328.445Z" fill="#070808"/>
<path d="M307.785 108.512C306.702 108.403 305.726 108.295 304.642 108.295C295.428 108.403 284.481 112.197 278.952 119.893C276.568 123.145 275.267 126.831 276.351 130.841C277.435 134.743 281.229 135.827 284.155 133.009C285.456 131.817 286.432 130.082 287.624 128.565C290.876 124.446 294.778 120.652 299.222 117.942C303.666 115.232 309.845 113.932 315.048 111.547C312.988 109.813 310.387 108.837 307.677 108.512H307.785Z" fill="#070808"/>
<path d="M437.64 130.298C440.566 131.274 443.385 132.358 445.986 133.875C450.647 136.694 454.441 140.813 457.801 145.148C458.777 146.341 459.535 147.533 460.403 148.725C461.812 150.46 463.546 151.219 465.822 150.568C468.099 149.918 468.966 148.075 469.291 146.016C469.399 145.04 469.291 143.956 469.291 142.872C468.641 138.32 466.148 134.959 462.571 132.249C458.018 128.672 452.49 126.288 446.853 125.204C441.217 124.12 433.954 123.469 430.16 127.914C432.654 128.889 435.255 129.648 437.857 130.407L437.64 130.298Z" fill="#070808"/>
<path d="M421.381 173.01C419.322 178.972 417.154 185.042 414.986 191.004C412.385 191.546 409.891 192.088 407.182 192.738C408.699 196.424 410.108 199.567 411.301 202.819C411.734 204.011 411.951 205.42 411.843 206.613C411.192 212.574 410.217 218.644 409.783 224.715C409.349 230.46 409.783 236.204 409.783 241.949C414.336 243.25 418.563 244.551 423.116 245.852C423.116 244.226 423.224 242.925 423.332 241.624C423.658 236.421 423.766 231.11 424.2 225.907C425.067 213.875 426.367 201.952 425.717 189.92C425.392 184.175 424.85 178.43 422.357 173.01C422.032 173.01 421.706 173.01 421.381 173.01Z" fill="#FAF9F6"/>
<path d="M324.584 231.431C325.343 222.542 325.885 213.654 326.861 204.874C327.836 195.335 328.378 185.688 328.053 176.149C328.053 172.139 327.294 168.236 325.126 164.117C324.584 165.31 324.151 165.96 323.826 166.719C322.308 171.488 320.899 176.258 319.49 181.027C319.056 182.545 318.839 184.17 318.406 185.688C317.647 188.181 316.346 188.831 313.853 188.181C312.661 187.964 311.577 187.531 309.951 187.097C311.577 190.566 313.094 193.384 314.178 196.311C314.937 198.262 315.371 200.43 315.371 202.489C315.262 209.752 314.829 217.014 314.612 224.385C314.612 227.203 314.612 230.021 314.612 233.056C317.755 234.466 320.899 235.875 324.367 237.392C324.584 235.116 324.801 233.273 324.801 231.431H324.584Z" fill="#FAF9F6"/>
<path d="M396.126 323.785C398.51 329.421 410.976 349.908 413.144 351.751C416.612 348.39 418.238 344.813 418.346 340.369C418.563 330.722 413.686 323.243 408.049 315.438C403.713 318.473 399.919 321.075 396.017 323.785H396.126Z" fill="#F37B72"/>
<path d="M375.206 334.409C379.216 341.563 383.119 348.066 388.43 353.703C389.405 354.679 390.489 355.546 391.573 356.196C395.801 358.472 400.137 358.689 404.906 356.521C399.269 347.091 393.85 337.877 388.213 328.447C383.661 330.506 379.542 332.458 375.206 334.409Z" fill="#F37B72"/>
<path d="M647.173 475.121C646.524 469.727 645.659 464.656 644.578 460.233C646.957 457.536 640.036 444.806 628.898 431.32C617.544 417.511 606.082 408.233 603.379 410.499C600.568 412.764 607.488 425.818 618.842 439.627C623.924 445.777 628.898 451.063 633.224 454.731C632.899 460.557 633.224 468.324 634.197 476.739C636.36 494.432 641.009 508.457 644.578 508.025C648.146 507.594 649.227 492.922 647.065 475.229L647.173 475.121Z" fill="white"/>
<path d="M330.513 758.649C333.633 727.463 333.271 701.895 329.706 701.54C326.14 701.185 320.721 726.177 317.601 757.363C314.481 788.548 314.842 814.117 318.408 814.472C321.973 814.827 327.393 789.834 330.513 758.649Z" fill="white"/>
<path d="M528.554 197.212C528.554 199.478 528.986 201.635 530.284 203.469C532.23 206.382 535.474 207.677 537.745 204.548C541.53 199.585 542.178 192.141 542.935 185.884C543.692 178.764 544.449 171.536 545.206 164.415C545.531 160.855 545.963 157.403 546.288 153.843C546.612 150.283 547.153 148.017 545.314 145.859C538.718 137.984 533.528 153.951 532.555 158.805C530.608 169.486 529.311 180.274 528.77 191.063C528.229 201.851 528.446 195.054 528.446 196.996L528.554 197.212Z" fill="#070808"/>
</svg>
