<svg width="20" height="23" viewBox="0 0 20 23" fill="none" xmlns="http://www.w3.org/2000/svg">
<path d="M20 5.56908V9.53332C19.3046 9.46566 18.4011 9.30826 17.4016 8.94346C16.0965 8.46687 15.1251 7.81526 14.4888 7.31072V15.323L14.4726 15.298C14.4829 15.4569 14.4888 15.6187 14.4888 15.782C14.4888 19.7609 11.2394 23 7.24441 23C3.24943 23 0 19.7609 0 15.782C0 11.803 3.24943 8.56251 7.24441 8.56251C7.63564 8.56251 8.01949 8.59338 8.39448 8.65369V12.5606C8.03426 12.4326 7.64745 12.3635 7.24441 12.3635C5.35321 12.3635 3.81339 13.8962 3.81339 15.782C3.81339 17.6677 5.35321 19.2005 7.24441 19.2005C9.1356 19.2005 10.6754 17.6663 10.6754 15.782C10.6754 15.7114 10.674 15.6408 10.6695 15.5702V0H14.6453C14.6601 0.33538 14.6734 0.673717 14.6881 1.0091C14.7147 1.66956 14.9509 2.30356 15.3628 2.82281C15.8456 3.43326 16.5586 4.14223 17.5596 4.70856C18.4971 5.23663 19.377 5.46465 20 5.57203V5.56908Z" fill="#FAF9F6"/>
</svg>
